<svg width="53" height="50" viewBox="0 0 53 50" fill="none" xmlns="http://www.w3.org/2000/svg">
<path d="M8.83301 12.5C8.83301 10.7741 10.3161 9.375 12.1455 9.375H40.8538C42.6833 9.375 44.1663 10.7741 44.1663 12.5V23.9583H8.83301V12.5Z" stroke="#1F1E1E" stroke-width="4" stroke-linecap="round" stroke-linejoin="round"/>
<path d="M6.625 36.4585V40.6252" stroke="#1F1E1E" stroke-width="4" stroke-linecap="round" stroke-linejoin="round"/>
<path d="M46.375 36.4585V40.6252" stroke="#1F1E1E" stroke-width="4" stroke-linecap="round" stroke-linejoin="round"/>
<path d="M22.083 18.75H15.458C13.6285 18.75 12.1455 20.1491 12.1455 21.875V23.9583H25.3955V21.875C25.3955 20.1491 23.9125 18.75 22.083 18.75Z" stroke="#79FA95" stroke-width="4" stroke-linecap="round" stroke-linejoin="round"/>
<path d="M37.542 18.75H30.917C29.0875 18.75 27.6045 20.1491 27.6045 21.875V23.9583H40.8545V21.875C40.8545 20.1491 39.3715 18.75 37.542 18.75Z" stroke="#79FA95" stroke-width="4" stroke-linecap="round" stroke-linejoin="round"/>
<path d="M4.41699 27.0835C4.41699 25.3576 5.90005 23.9585 7.72949 23.9585H45.2712C47.1007 23.9585 48.5837 25.3576 48.5837 27.0835V36.4585H4.41699V27.0835Z" stroke="#1F1E1E" stroke-width="4" stroke-linecap="round" stroke-linejoin="round"/>
</svg>
