<svg width="46" height="46" viewBox="0 0 46 46" fill="none" xmlns="http://www.w3.org/2000/svg">
<path d="M14.3757 7.66702C14.6279 7.66848 14.8779 7.62013 15.1115 7.52475C15.345 7.42937 15.5574 7.28883 15.7365 7.11119L17.6532 5.19452C18.0141 4.83361 18.2168 4.3441 18.2168 3.83369C18.2168 3.32328 18.0141 2.83377 17.6532 2.47286C17.2922 2.11194 16.8027 1.90918 16.2923 1.90918C15.7819 1.90918 15.2924 2.11194 14.9315 2.47286L13.0148 4.38952C12.8352 4.5677 12.6926 4.77969 12.5953 5.01325C12.498 5.24681 12.4479 5.49733 12.4479 5.75036C12.4479 6.00338 12.498 6.2539 12.5953 6.48746C12.6926 6.72102 12.8352 6.93301 13.0148 7.11119C13.1939 7.28883 13.4063 7.42937 13.6398 7.52475C13.8734 7.62013 14.1234 7.66848 14.3757 7.66702ZM22.0423 7.66702C22.2946 7.66848 22.5446 7.62013 22.7781 7.52475C23.0117 7.42937 23.2241 7.28883 23.4032 7.11119L25.3198 5.19452C25.6807 4.83361 25.8835 4.3441 25.8835 3.83369C25.8835 3.32328 25.6807 2.83377 25.3198 2.47286C24.9589 2.11194 24.4694 1.90918 23.959 1.90918C23.4486 1.90918 22.9591 2.11194 22.5982 2.47286L20.6815 4.38952C20.5018 4.5677 20.3592 4.77969 20.2619 5.01325C20.1646 5.24681 20.1145 5.49733 20.1145 5.75036C20.1145 6.00338 20.1646 6.2539 20.2619 6.48746C20.3592 6.72102 20.5018 6.93301 20.6815 7.11119C20.8606 7.28883 21.073 7.42937 21.3065 7.52475C21.54 7.62013 21.7901 7.66848 22.0423 7.66702ZM29.709 7.66702C29.9612 7.66848 30.2113 7.62013 30.4448 7.52475C30.6783 7.42937 30.8907 7.28883 31.0698 7.11119L32.9865 5.19452C33.1652 5.01581 33.3069 4.80366 33.4037 4.57017C33.5004 4.33667 33.5502 4.08642 33.5502 3.83369C33.5502 3.58096 33.5004 3.3307 33.4037 3.09721C33.3069 2.86372 33.1652 2.65156 32.9865 2.47286C32.8078 2.29415 32.5956 2.15239 32.3621 2.05567C32.1286 1.95896 31.8784 1.90918 31.6257 1.90918C31.3729 1.90918 31.1227 1.95896 30.8892 2.05567C30.6557 2.15239 30.4435 2.29415 30.2648 2.47286L28.3482 4.38952C28.1685 4.5677 28.0259 4.77969 27.9286 5.01325C27.8313 5.24681 27.7812 5.49733 27.7812 5.75036C27.7812 6.00338 27.8313 6.2539 27.9286 6.48746C28.0259 6.72102 28.1685 6.93301 28.3482 7.11119C28.5272 7.28883 28.7396 7.42937 28.9732 7.52475C29.2067 7.62013 29.4567 7.66848 29.709 7.66702ZM34.3473 29.9387C34.3054 29.8165 34.2474 29.7005 34.1748 29.5937L33.9448 29.3062L33.6573 29.0762C33.5505 29.0036 33.4345 28.9456 33.3123 28.9037C33.1982 28.8453 33.0751 28.8065 32.9482 28.7887C32.6402 28.727 32.3219 28.742 32.0211 28.8322C31.7203 28.9225 31.4463 29.0852 31.2232 29.3062C31.1407 29.3973 31.0639 29.4933 30.9932 29.5937C30.9206 29.7005 30.8626 29.8165 30.8207 29.9387C30.7654 30.0473 30.7266 30.1636 30.7057 30.2837C30.6962 30.4113 30.6962 30.5394 30.7057 30.667C30.7078 31.1698 30.9074 31.6517 31.2615 32.0087C31.4387 32.194 31.6547 32.338 31.894 32.4304C32.1125 32.5238 32.3465 32.5758 32.584 32.5837C33.0923 32.5837 33.5798 32.3818 33.9393 32.0223C34.2987 31.6629 34.5007 31.1754 34.5007 30.667C34.5101 30.5394 34.5101 30.4113 34.5007 30.2837C34.4676 30.1615 34.4159 30.0451 34.3473 29.9387ZM37.874 21.2945L35.2673 13.5129C34.8697 12.3882 34.1322 11.4151 33.1569 10.7282C32.1816 10.0414 31.0168 9.67492 29.824 9.67952H16.1773C14.9845 9.67492 13.8197 10.0414 12.8444 10.7282C11.8691 11.4151 11.1316 12.3882 10.734 13.5129L8.12732 21.2945C6.90128 21.6156 5.81566 22.3327 5.03924 23.3344C4.26282 24.3361 3.83911 25.5663 3.83398 26.8337V34.5004C3.83732 35.6867 4.2075 36.8429 4.89378 37.8106C5.58006 38.7782 6.54885 39.5099 7.66732 39.9054V42.167C7.66732 42.6754 7.86925 43.1629 8.2287 43.5223C8.58814 43.8818 9.07565 44.0837 9.58398 44.0837C10.0923 44.0837 10.5798 43.8818 10.9393 43.5223C11.2987 43.1629 11.5007 42.6754 11.5007 42.167V40.2504H34.5007V42.167C34.5007 42.6754 34.7026 43.1629 35.062 43.5223C35.4215 43.8818 35.909 44.0837 36.4173 44.0837C36.9256 44.0837 37.4132 43.8818 37.7726 43.5223C38.132 43.1629 38.334 42.6754 38.334 42.167V39.9054C39.4525 39.5099 40.4212 38.7782 41.1075 37.8106C41.7938 36.8429 42.164 35.6867 42.1673 34.5004V26.8337C42.1622 25.5663 41.7385 24.3361 40.9621 23.3344C40.1856 22.3327 39.1 21.6156 37.874 21.2945ZM14.3565 14.7204C14.4851 14.3397 14.73 14.009 15.0568 13.7751C15.3835 13.5413 15.7755 13.416 16.1773 13.417H29.824C30.2419 13.3952 30.6556 13.5108 31.0016 13.7461C31.3477 13.9815 31.6073 14.3236 31.7407 14.7204L33.7532 21.0837H12.2482L14.3565 14.7204ZM38.334 34.5004C38.334 35.0087 38.132 35.4962 37.7726 35.8556C37.4132 36.2151 36.9256 36.417 36.4173 36.417H9.58398C9.07565 36.417 8.58814 36.2151 8.2287 35.8556C7.86925 35.4962 7.66732 35.0087 7.66732 34.5004V26.8337C7.66732 26.3254 7.86925 25.8378 8.2287 25.4784C8.58814 25.119 9.07565 24.917 9.58398 24.917H36.4173C36.9256 24.917 37.4132 25.119 37.7726 25.4784C38.132 25.8378 38.334 26.3254 38.334 26.8337V34.5004ZM24.9173 28.7504H21.084C20.5757 28.7504 20.0881 28.9523 19.7287 29.3117C19.3693 29.6712 19.1673 30.1587 19.1673 30.667C19.1673 31.1754 19.3693 31.6629 19.7287 32.0223C20.0881 32.3818 20.5757 32.5837 21.084 32.5837H24.9173C25.4256 32.5837 25.9132 32.3818 26.2726 32.0223C26.632 31.6629 26.834 31.1754 26.834 30.667C26.834 30.1587 26.632 29.6712 26.2726 29.3117C25.9132 28.9523 25.4256 28.7504 24.9173 28.7504ZM15.1807 29.9387C15.1387 29.8165 15.0807 29.7005 15.0082 29.5937L14.7782 29.3062C14.5086 29.0402 14.1664 28.8601 13.7945 28.7884C13.4227 28.7168 13.038 28.7569 12.689 28.9037C12.4537 28.9949 12.2388 29.1317 12.0565 29.3062C11.9741 29.3973 11.8972 29.4933 11.8265 29.5937C11.7539 29.7005 11.6959 29.8165 11.654 29.9387C11.5854 30.0451 11.5337 30.1615 11.5007 30.2837C11.4912 30.4113 11.4912 30.5394 11.5007 30.667C11.5022 31.0461 11.6162 31.4162 11.8281 31.7305C12.04 32.0448 12.3404 32.2892 12.6912 32.4328C13.042 32.5764 13.4275 32.6128 13.799 32.5373C14.1705 32.4618 14.5112 32.2778 14.7782 32.0087C15.1322 31.6517 15.3319 31.1698 15.334 30.667C15.3434 30.5394 15.3434 30.4113 15.334 30.2837C15.301 30.1615 15.2493 30.0451 15.1807 29.9387Z" fill="#1F1E1E"/>
<rect x="19.166" y="32.583" width="3.83333" height="7.66667" rx="1.91667" transform="rotate(-90 19.166 32.583)" fill="#79FA95"/>
</svg>
