<svg width="20" height="20" viewBox="0 0 20 20" fill="none" xmlns="http://www.w3.org/2000/svg">
<path d="M6.25033 3.33349C6.36 3.33412 6.46872 3.3131 6.57025 3.27163C6.67178 3.23016 6.76413 3.16906 6.84199 3.09182L7.67533 2.25849C7.83225 2.10157 7.9204 1.88874 7.9204 1.66682C7.9204 1.4449 7.83225 1.23207 7.67533 1.07515C7.51841 0.918235 7.30558 0.830078 7.08366 0.830078C6.86174 0.830078 6.64891 0.918235 6.49199 1.07515L5.65866 1.90849C5.58055 1.98596 5.51856 2.07812 5.47625 2.17967C5.43394 2.28122 5.41216 2.39014 5.41216 2.50015C5.41216 2.61016 5.43394 2.71909 5.47625 2.82063C5.51856 2.92218 5.58055 3.01435 5.65866 3.09182C5.73653 3.16906 5.82887 3.23016 5.9304 3.27163C6.03193 3.3131 6.14065 3.33412 6.25033 3.33349ZM9.58366 3.33349C9.69333 3.33412 9.80205 3.3131 9.90358 3.27163C10.0051 3.23016 10.0975 3.16906 10.1753 3.09182L11.0087 2.25849C11.1656 2.10157 11.2537 1.88874 11.2537 1.66682C11.2537 1.4449 11.1656 1.23207 11.0087 1.07515C10.8517 0.918235 10.6389 0.830078 10.417 0.830078C10.1951 0.830078 9.98225 0.918235 9.82533 1.07515L8.99199 1.90849C8.91389 1.98596 8.85189 2.07812 8.80958 2.17967C8.76728 2.28122 8.74549 2.39014 8.74549 2.50015C8.74549 2.61016 8.76728 2.71909 8.80958 2.82063C8.85189 2.92218 8.91389 3.01435 8.99199 3.09182C9.06986 3.16906 9.16221 3.23016 9.26374 3.27163C9.36527 3.3131 9.47399 3.33412 9.58366 3.33349ZM12.917 3.33349C13.0267 3.33412 13.1354 3.3131 13.2369 3.27163C13.3384 3.23016 13.4308 3.16906 13.5087 3.09182L14.342 2.25849C14.4197 2.18079 14.4813 2.08855 14.5234 1.98703C14.5654 1.88551 14.5871 1.7767 14.5871 1.66682C14.5871 1.55694 14.5654 1.44813 14.5234 1.34661C14.4813 1.2451 14.4197 1.15285 14.342 1.07515C14.2643 0.997456 14.1721 0.935822 14.0705 0.893771C13.969 0.851721 13.8602 0.830078 13.7503 0.830078C13.6404 0.830078 13.5316 0.851721 13.4301 0.893771C13.3286 0.935822 13.2364 0.997456 13.1587 1.07515L12.3253 1.90849C12.2472 1.98596 12.1852 2.07812 12.1429 2.17967C12.1006 2.28122 12.0788 2.39014 12.0788 2.50015C12.0788 2.61016 12.1006 2.71909 12.1429 2.82063C12.1852 2.92218 12.2472 3.01435 12.3253 3.09182C12.4032 3.16906 12.4955 3.23016 12.5971 3.27163C12.6986 3.3131 12.8073 3.33412 12.917 3.33349ZM14.9337 13.0168C14.9154 12.9637 14.8902 12.9133 14.8587 12.8668L14.7587 12.7418L14.6337 12.6418C14.5872 12.6103 14.5368 12.5851 14.4837 12.5668C14.434 12.5414 14.3805 12.5245 14.3253 12.5168C14.1914 12.49 14.053 12.4965 13.9223 12.5357C13.7915 12.575 13.6723 12.6457 13.5753 12.7418C13.5395 12.7814 13.5061 12.8232 13.4753 12.8668C13.4438 12.9133 13.4186 12.9637 13.4003 13.0168C13.3763 13.0641 13.3594 13.1146 13.3503 13.1668C13.3462 13.2223 13.3462 13.278 13.3503 13.3335C13.3512 13.5521 13.438 13.7616 13.592 13.9168C13.6691 13.9974 13.763 14.06 13.867 14.1002C13.962 14.1408 14.0637 14.1634 14.167 14.1668C14.388 14.1668 14.6 14.079 14.7562 13.9227C14.9125 13.7665 15.0003 13.5545 15.0003 13.3335C15.0044 13.278 15.0044 13.2223 15.0003 13.1668C14.986 13.1137 14.9635 13.0631 14.9337 13.0168ZM16.467 9.25849L15.3337 5.87515C15.1608 5.38618 14.8401 4.96307 14.4161 4.66446C13.992 4.36584 13.4856 4.20649 12.967 4.20849H7.03366C6.51503 4.20649 6.00861 4.36584 5.58457 4.66446C5.16054 4.96307 4.83987 5.38618 4.66699 5.87515L3.53366 9.25849C3.0006 9.39808 2.52859 9.70988 2.19102 10.1454C1.85344 10.5809 1.66922 11.1158 1.66699 11.6668V15.0002C1.66844 15.5159 1.82939 16.0187 2.12777 16.4394C2.42616 16.8601 2.84737 17.1782 3.33366 17.3502V18.3335C3.33366 18.5545 3.42146 18.7665 3.57774 18.9227C3.73402 19.079 3.94598 19.1668 4.16699 19.1668C4.38801 19.1668 4.59997 19.079 4.75625 18.9227C4.91253 18.7665 5.00033 18.5545 5.00033 18.3335V17.5002H15.0003V18.3335C15.0003 18.5545 15.0881 18.7665 15.2444 18.9227C15.4007 19.079 15.6126 19.1668 15.8337 19.1668C16.0547 19.1668 16.2666 19.079 16.4229 18.9227C16.5792 18.7665 16.667 18.5545 16.667 18.3335V17.3502C17.1533 17.1782 17.5745 16.8601 17.8729 16.4394C18.1713 16.0187 18.3322 15.5159 18.3337 15.0002V11.6668C18.3314 11.1158 18.1472 10.5809 17.8096 10.1454C17.4721 9.70988 17.0001 9.39808 16.467 9.25849ZM6.24199 6.40015C6.2979 6.23464 6.40441 6.09088 6.54647 5.98919C6.68853 5.8875 6.85896 5.83304 7.03366 5.83349H12.967C13.1487 5.824 13.3285 5.87426 13.479 5.97658C13.6295 6.07891 13.7423 6.22767 13.8003 6.40015L14.6753 9.16682H5.32533L6.24199 6.40015ZM16.667 15.0002C16.667 15.2212 16.5792 15.4331 16.4229 15.5894C16.2666 15.7457 16.0547 15.8335 15.8337 15.8335H4.16699C3.94598 15.8335 3.73402 15.7457 3.57774 15.5894C3.42146 15.4331 3.33366 15.2212 3.33366 15.0002V11.6668C3.33366 11.4458 3.42146 11.2338 3.57774 11.0776C3.73402 10.9213 3.94598 10.8335 4.16699 10.8335H15.8337C16.0547 10.8335 16.2666 10.9213 16.4229 11.0776C16.5792 11.2338 16.667 11.4458 16.667 11.6668V15.0002ZM10.8337 12.5002H9.16699C8.94598 12.5002 8.73402 12.588 8.57774 12.7442C8.42146 12.9005 8.33366 13.1125 8.33366 13.3335C8.33366 13.5545 8.42146 13.7665 8.57774 13.9227C8.73402 14.079 8.94598 14.1668 9.16699 14.1668H10.8337C11.0547 14.1668 11.2666 14.079 11.4229 13.9227C11.5792 13.7665 11.667 13.5545 11.667 13.3335C11.667 13.1125 11.5792 12.9005 11.4229 12.7442C11.2666 12.588 11.0547 12.5002 10.8337 12.5002ZM6.60033 13.0168C6.58209 12.9637 6.55686 12.9133 6.52533 12.8668L6.42533 12.7418C6.30814 12.6262 6.15933 12.5479 5.99767 12.5167C5.83601 12.4856 5.66875 12.503 5.51699 12.5668C5.4147 12.6065 5.32125 12.666 5.24199 12.7418C5.20615 12.7814 5.17276 12.8232 5.14199 12.8668C5.11045 12.9133 5.08523 12.9637 5.06699 13.0168C5.03716 13.0631 5.01467 13.1137 5.00033 13.1668C4.99623 13.2223 4.99623 13.278 5.00033 13.3335C5.00102 13.4983 5.05056 13.6592 5.1427 13.7959C5.23483 13.9325 5.36542 14.0388 5.51795 14.1012C5.67048 14.1636 5.83809 14.1795 5.9996 14.1466C6.16111 14.1138 6.30927 14.0338 6.42533 13.9168C6.57928 13.7616 6.66607 13.5521 6.66699 13.3335C6.67108 13.278 6.67108 13.2223 6.66699 13.1668C6.65264 13.1137 6.63016 13.0631 6.60033 13.0168Z" fill="white"/>
<rect x="8.33301" y="14.1665" width="1.66667" height="3.33333" rx="0.833333" transform="rotate(-90 8.33301 14.1665)" fill="#79FA95"/>
</svg>
