<svg width="50" height="33" viewBox="0 0 50 33" fill="none" xmlns="http://www.w3.org/2000/svg">
<path d="M2.05776 13.1621C4.26281 5.97983 6.6529 2.52732 10.0521 1.61812C13.0521 1.11994 16.0939 0.92209 19.1328 1.02749C22.1516 1.02749 23.9541 2.6203 23.9541 5.29105V8.76596C25.0631 8.95045 26.071 9.52491 26.7977 10.3869C27.5245 11.2488 27.923 12.3422 27.9221 13.4721V16.9487C27.923 17.2938 27.7877 17.6252 27.5459 17.8702C27.304 18.1152 26.9754 18.2538 26.632 18.2557H25.7428V20.2841C25.7476 20.3861 25.7318 20.488 25.6964 20.5836C25.6609 20.6793 25.6064 20.7667 25.5364 20.8406C25.4663 20.9144 25.382 20.9733 25.2886 21.0135C25.1953 21.0536 25.0948 21.0744 24.9932 21.0744C24.8916 21.0744 24.7911 21.0536 24.6978 21.0135C24.6044 20.9733 24.5201 20.9144 24.45 20.8406C24.38 20.7667 24.3255 20.6793 24.29 20.5836C24.2546 20.488 24.2388 20.3861 24.2436 20.2841V18.2591H22.1602V20.2841C22.1651 20.3861 22.1493 20.488 22.1138 20.5836C22.0783 20.6793 22.0239 20.7667 21.9538 20.8406C21.8837 20.9144 21.7994 20.9733 21.7061 21.0135C21.6127 21.0536 21.5122 21.0744 21.4106 21.0744C21.3091 21.0744 21.2086 21.0536 21.1152 21.0135C21.0218 20.9733 20.9376 20.9144 20.8675 20.8406C20.7974 20.7667 20.743 20.6793 20.7075 20.5836C20.672 20.488 20.6562 20.3861 20.6611 20.2841V18.2591H19.7718C19.4285 18.2573 19.0998 18.1187 18.8579 17.8737C18.6161 17.6287 18.4808 17.2973 18.4817 16.9521V13.4738C18.4804 12.3437 18.8787 11.2498 19.6055 10.3875C20.3324 9.52521 21.3404 8.9505 22.4498 8.76596V5.29105C22.4498 3.02324 20.6422 2.54798 19.1088 2.54798C16.2068 2.45299 13.3023 2.63403 10.4342 3.08867C7.63635 3.836 5.49298 7.08361 3.48668 13.6133C2.49892 17.073 2.24731 20.703 2.74823 24.267C2.79197 24.5841 2.94811 24.8747 3.18795 25.0854C3.4278 25.2961 3.73524 25.4127 4.05379 25.4138H4.59691C4.76608 24.0166 5.43832 22.7299 6.48673 21.7966C7.53515 20.8634 8.88722 20.3481 10.2877 20.3481C11.6882 20.3481 13.0403 20.8634 14.0887 21.7966C15.1371 22.7299 15.8094 24.0166 15.9785 25.4138H33.7029C33.8721 24.0166 34.5443 22.7299 35.5927 21.7966C36.6411 20.8634 37.9932 20.3481 39.3937 20.3481C40.7942 20.3481 42.1463 20.8634 43.1947 21.7966C44.2431 22.7299 44.9153 24.0166 45.0845 25.4138H46.0286C46.3556 25.4137 46.671 25.2913 46.9133 25.0704C47.1555 24.8495 47.3074 24.546 47.3393 24.2188C47.6737 22.2266 47.5369 20.1832 46.94 18.2539C46.02 16.1996 42.0913 13.6701 40.6556 12.8694C40.6107 12.845 40.5687 12.8155 40.5305 12.7816C40.4311 12.6989 30.8451 4.43007 26.4384 3.30047C25.9672 3.17993 25.4327 3.06973 24.8467 2.97674C24.7139 2.95843 24.5884 2.90469 24.4832 2.82111C24.3781 2.73753 24.2971 2.62716 24.2488 2.50149C24.2001 2.37528 24.1855 2.23837 24.2066 2.10468C24.2277 1.97099 24.2836 1.84529 24.3687 1.74038C24.4532 1.636 24.5642 1.55645 24.6899 1.51009C24.8157 1.46373 24.9515 1.45227 25.0832 1.47692C25.7119 1.57852 26.2928 1.69561 26.8068 1.82131C31.4087 3.00257 40.5476 10.8013 41.4437 11.571C42.1136 11.9481 47.0514 14.8272 48.297 17.6254C48.9953 19.8031 49.1766 22.1148 48.8264 24.3755C48.7589 25.0748 48.4351 25.7239 47.9181 26.1967C47.4011 26.6696 46.7276 26.9325 46.0286 26.9343H45.0845C44.9153 28.3316 44.2431 29.6182 43.1947 30.5515C42.1463 31.4847 40.7942 32 39.3937 32C37.9932 32 36.6411 31.4847 35.5927 30.5515C34.5443 29.6182 33.8721 28.3316 33.7029 26.9343H15.9871C15.8179 28.3316 15.1457 29.6182 14.0973 30.5515C13.0489 31.4847 11.6968 32 10.2963 32C8.89578 32 7.54372 31.4847 6.4953 30.5515C5.44689 29.6182 4.77465 28.3316 4.60548 26.9343H4.05721C3.37589 26.9313 2.71846 26.6816 2.20551 26.2309C1.69256 25.7802 1.35846 25.1587 1.26449 24.4805C0.73358 20.6936 1.00389 16.8368 2.05776 13.1621ZM19.9809 13.4738V16.7455H26.4178V13.4738C26.4178 12.6159 26.0787 11.7931 25.4752 11.1865C24.8716 10.5799 24.0529 10.2391 23.1994 10.2391C22.3458 10.2391 21.5271 10.5799 20.9235 11.1865C20.32 11.7931 19.9809 12.6159 19.9809 13.4738ZM39.3928 30.4815C40.2401 30.4897 41.0707 30.2451 41.7796 29.7787C42.4886 29.3123 43.0439 28.6451 43.3755 27.8615C43.7071 27.0778 43.8 26.213 43.6424 25.3763C43.4848 24.5396 43.0839 23.7686 42.4903 23.161C41.8967 22.5533 41.1372 22.1362 40.3077 21.9625C39.4782 21.7888 38.6161 21.8662 37.8304 22.1849C37.0447 22.5037 36.3708 23.0495 35.8938 23.7533C35.4168 24.4571 35.1581 25.2872 35.1507 26.1388C35.1507 26.1525 35.1507 26.1646 35.1507 26.1784C35.1507 26.1921 35.1507 26.2042 35.1507 26.2162C35.1574 27.3451 35.6064 28.4258 36.4005 29.2242C37.1946 30.0226 38.2697 30.4743 39.3928 30.4815ZM10.2954 30.4815C11.1442 30.489 11.976 30.243 12.6853 29.7745C13.3946 29.3061 13.9495 28.6364 14.2795 27.8505C14.6095 27.0645 14.6997 26.1978 14.5387 25.3603C14.3777 24.5227 13.9727 23.7521 13.3752 23.1463C12.7777 22.5404 12.0146 22.1267 11.1827 21.9575C10.3508 21.7883 9.48767 21.8713 8.7028 22.196C7.91793 22.5206 7.24673 23.0724 6.77438 23.7811C6.30204 24.4898 6.04985 25.3236 6.04981 26.1766C6.04526 27.3132 6.4899 28.4051 7.28601 29.2123C8.08212 30.0196 9.16457 30.4761 10.2954 30.4815Z" fill="#1F1E1E" stroke="#1F1E1E" stroke-width="2"/>
<path d="M22.7021 10.5957H23.5479C24.7706 10.5958 25.7616 11.5868 25.7617 12.8096V16.5H20.4883V12.8096C20.4884 11.5868 21.4794 10.5958 22.7021 10.5957Z" fill="#79FA95" stroke="#1F1E1E" stroke-width="1.47619"/>
</svg>
