<svg width="50" height="50" viewBox="0 0 50 50" fill="none" xmlns="http://www.w3.org/2000/svg">
<path d="M10.417 16.6665H39.5837" stroke="#1F1E1E" stroke-width="4" stroke-linecap="round"/>
<path d="M14.7437 18.8983C14.6575 17.6923 15.6127 16.6665 16.8218 16.6665H33.1801C34.3892 16.6665 35.3444 17.6923 35.2583 18.8983L33.4725 43.8983C33.3946 44.9885 32.4874 45.8332 31.3945 45.8332H18.6074C17.5145 45.8332 16.6073 44.9885 16.5294 43.8983L14.7437 18.8983Z" stroke="#1F1E1E" stroke-width="4"/>
<path d="M25 10.4165V6.24984C25 5.09924 25.9327 4.1665 27.0833 4.1665H30.2083" stroke="#79FA95" stroke-width="4" stroke-linecap="round"/>
<path d="M15.3346 12.1573C15.502 11.1528 16.3711 10.4165 17.3896 10.4165H32.6098C33.6282 10.4165 34.4974 11.1528 34.6648 12.1573L35.4163 16.6665H14.583L15.3346 12.1573Z" stroke="#1F1E1E" stroke-width="4"/>
</svg>
