<svg width="86" height="85" viewBox="0 0 86 85" fill="none" xmlns="http://www.w3.org/2000/svg">
<path fill-rule="evenodd" clip-rule="evenodd" d="M22.3657 22.6666C20.882 23.351 20.0088 24.9907 20.0088 26.6249V65.2227C20.0088 65.2227 20.0088 66.9719 21.55 67.7603C21.9467 67.9561 22.3827 68.0593 22.8251 68.0622C23.2675 68.065 23.7048 67.9674 24.104 67.7767L28.2101 65.8934C28.7122 65.6623 29.1375 65.2922 29.4358 64.827C29.7342 64.3618 29.8931 63.8209 29.8937 63.2682V29.7675L45.1466 22.8582C45.6684 22.6161 46.1099 22.2297 46.4189 21.7446C46.7279 21.2594 46.8915 20.696 46.8904 20.1208V16.198C46.8827 15.7643 46.7808 15.3374 46.5917 14.947C46.4026 14.5566 46.1309 14.2119 45.7954 13.9369C44.9742 13.1951 43.7642 13.0664 42.6501 13.5865L22.3739 22.6666H22.3657Z" fill="#79FA95"/>
<path d="M65.3501 47.5273C64.957 46.0758 64.3021 44.7084 63.4175 43.4923C65.3529 41.1709 66.9159 37.4918 65.3501 32.0827C62.0844 20.8017 50.9813 25.4827 48.6874 26.5257C48.2905 26.7064 47.8196 26.887 47.4227 27.0732L46.9135 27.3113V37.0073L55.5282 33.1749C55.6741 33.1049 55.8275 33.0517 55.9854 33.0161C56.2114 32.9405 56.4478 32.9008 56.6862 32.8984C57.229 32.8987 57.7549 33.0871 58.1743 33.4317C58.5937 33.7763 58.8807 34.2556 58.9862 34.7881C59.0918 35.3205 59.0095 35.8731 58.7533 36.3516C58.4971 36.8302 58.0829 37.2051 57.5813 37.4125L44.4416 43.1939V38.105L34.6279 42.4302V58.2279V68.3126C34.6278 68.8862 34.7721 69.4507 35.0475 69.9538C35.3229 70.457 35.7206 70.8827 36.2039 71.1918C36.6872 71.5008 37.2405 71.6831 37.8128 71.722C38.3851 71.7608 38.958 71.6549 39.4787 71.4141L42.405 70.0454L59.2456 62.1944C59.2456 62.1944 68.4571 58.258 65.3501 47.5273ZM58.7392 51.8305C58.4764 52.2969 58.0635 52.6607 57.5676 52.8625L44.6031 58.5755C44.5842 58.5838 44.5635 58.5872 44.543 58.5853C44.5224 58.5835 44.5027 58.5766 44.4855 58.5651C44.4683 58.5537 44.4543 58.5381 44.4447 58.5199C44.4352 58.5016 44.4303 58.4812 44.4307 58.4606V53.6427L48.6846 51.6608L55.5282 48.6168C55.6741 48.5468 55.8275 48.4935 55.9854 48.458C56.312 48.3392 56.6638 48.3073 57.0064 48.3654C57.349 48.4234 57.6707 48.5695 57.9399 48.7892C58.9035 49.4873 59.3196 50.7903 58.7392 51.8305Z" fill="white"/>
<path fill-rule="evenodd" clip-rule="evenodd" d="M34.585 34.0151V36.3474C34.5855 36.6416 34.6602 36.9309 34.802 37.1886C34.9438 37.4463 35.1482 37.6642 35.3964 37.8221C35.6446 37.98 35.9286 38.0729 36.2221 38.0922C36.5157 38.1115 36.8093 38.0565 37.076 37.9324L42.5865 35.362C43.2024 35.0745 43.7526 34.4559 43.7526 33.777V31.4474C43.7526 30.1663 42.2662 29.3177 41.1083 29.8597L35.5951 32.4302C35.2933 32.5708 35.038 32.7947 34.8591 33.0755C34.6801 33.3562 34.585 33.6822 34.585 34.0151Z" fill="#79FA95"/>
</svg>
