<svg width="22" height="21" viewBox="0 0 22 21" fill="none" xmlns="http://www.w3.org/2000/svg">
<path d="M6.14006 13.5937V4.72267C6.13561 4.64748 6.16703 4.57388 6.22745 4.51794C6.28787 4.46199 6.37239 4.42825 6.46256 4.42407H11.4123C11.5025 4.42825 11.587 4.46199 11.6474 4.51794C11.7078 4.57388 11.7392 4.64748 11.7348 4.72267V8.4385" stroke="#1F1E1E" stroke-width="1.56907" stroke-miterlimit="10" stroke-linecap="round"/>
<path d="M18.1127 2.8916V12.8949C18.1118 13.3067 17.9151 13.7013 17.5655 13.9923C17.2159 14.2832 16.7421 14.4466 16.2481 14.4466H14.752" stroke="#1F1E1E" stroke-width="1.56907" stroke-miterlimit="10" stroke-linecap="round"/>
<path d="M3.12891 8.7124H14.4041" stroke="#1F1E1E" stroke-width="1.56907" stroke-miterlimit="10" stroke-linecap="round"/>
<path d="M18.1125 5.94482H14.7324" stroke="#1F1E1E" stroke-width="1.56907" stroke-miterlimit="10" stroke-linecap="round"/>
<path d="M18.4375 20.1245H4.04351C3.80078 20.1245 3.56793 20.0284 3.39582 19.8572C3.22371 19.686 3.12635 19.4536 3.125 19.2109V2.66316C3.12635 2.42038 3.22371 2.188 3.39582 2.0168C3.56793 1.8456 3.80078 1.74951 4.04351 1.74951H13.8327C14.0751 1.7495 14.3076 1.84532 14.4797 2.01608C14.6517 2.18683 14.7493 2.41869 14.7512 2.66112L14.7839 20.1245" stroke="#1F1E1E" stroke-width="1.56907" stroke-miterlimit="10" stroke-linecap="round"/>
</svg>
