<svg width="24" height="24" viewBox="0 0 24 24" fill="none" xmlns="http://www.w3.org/2000/svg">
<path d="M6.44579 15.5357V5.3974C6.4407 5.31148 6.4766 5.22736 6.54566 5.16343C6.61471 5.09949 6.71131 5.06093 6.81436 5.05615H12.4712C12.5742 5.06093 12.6708 5.09949 12.7399 5.16343C12.8089 5.22736 12.8448 5.31148 12.8397 5.3974V9.64407" stroke="white" stroke-width="2" stroke-miterlimit="10" stroke-linecap="round"/>
<path d="M20.1279 3.30444V14.7368C20.127 15.2074 19.9021 15.6584 19.5026 15.9909C19.103 16.3234 18.5615 16.5101 17.997 16.5101H16.2871" stroke="#79FA95" stroke-width="2" stroke-miterlimit="10" stroke-linecap="round"/>
<path d="M3.00488 9.95703H15.8908" stroke="white" stroke-width="2" stroke-miterlimit="10" stroke-linecap="round"/>
<path d="M20.1286 6.79419H16.2656" stroke="#79FA95" stroke-width="2" stroke-miterlimit="10" stroke-linecap="round"/>
<path d="M20.5 22.9993H4.04972C3.77232 22.9993 3.5062 22.8894 3.30951 22.6938C3.11282 22.4981 3.00154 22.2326 3 21.9551V3.04343C3.00154 2.76597 3.11282 2.50039 3.30951 2.30474C3.5062 2.10909 3.77232 1.99926 4.04972 1.99927H15.2374C15.5144 1.99926 15.7802 2.10876 15.9768 2.30391C16.1734 2.49906 16.285 2.76404 16.2871 3.0411L16.3244 22.9993" stroke="white" stroke-width="2" stroke-miterlimit="10" stroke-linecap="round"/>
</svg>
