<svg width="44" height="44" viewBox="0 0 44 44" fill="none" xmlns="http://www.w3.org/2000/svg">
<path d="M11.8173 28.4816V9.89467C11.8079 9.73714 11.8738 9.58293 12.0004 9.46571C12.127 9.3485 12.3041 9.2778 12.493 9.26904H22.8638C23.0528 9.2778 23.2298 9.3485 23.3564 9.46571C23.483 9.58293 23.5489 9.73714 23.5395 9.89467V17.6802" stroke="#1F1E1E" stroke-width="3.63363" stroke-miterlimit="10" stroke-linecap="round"/>
<path d="M36.9009 6.05713V27.0165C36.8992 27.8792 36.4868 28.7061 35.7544 29.3157C35.0219 29.9252 34.0292 30.2676 32.9942 30.2676H29.8594" stroke="#79FA95" stroke-width="3.63363" stroke-miterlimit="10" stroke-linecap="round"/>
<path d="M5.50879 18.2534H29.1329" stroke="#1F1E1E" stroke-width="3.63363" stroke-miterlimit="10" stroke-linecap="round"/>
<path d="M36.9024 12.4556H29.8203" stroke="#79FA95" stroke-width="3.63363" stroke-miterlimit="10" stroke-linecap="round"/>
<path d="M37.5833 42.1645H7.42449C6.91593 42.1646 6.42804 41.9632 6.06744 41.6045C5.70683 41.2458 5.50283 40.7589 5.5 40.2502V5.57886C5.50283 5.07017 5.70683 4.58328 6.06744 4.22458C6.42804 3.86589 6.91593 3.66454 7.42449 3.66455H27.9352C28.4431 3.66454 28.9303 3.86529 29.2908 4.22307C29.6513 4.58084 29.8558 5.06664 29.8597 5.57458L29.9282 42.1645" stroke="#1F1E1E" stroke-width="3.63363" stroke-miterlimit="10" stroke-linecap="round"/>
</svg>
