<svg width="19" height="19" viewBox="0 0 19 19" fill="none" xmlns="http://www.w3.org/2000/svg">
<path d="M5.10292 12.2988V4.2726C5.09889 4.20457 5.12731 4.13798 5.18198 4.08737C5.23665 4.03675 5.31312 4.00622 5.3947 4.00244H9.87302C9.9546 4.00622 10.0311 4.03675 10.0857 4.08737C10.1404 4.13798 10.1688 4.20457 10.1648 4.2726V7.63454" stroke="#FEFEFE" stroke-width="1.56907" stroke-miterlimit="10" stroke-linecap="round"/>
<path d="M15.9342 2.61572V11.6663C15.9335 12.0389 15.7554 12.396 15.4391 12.6592C15.1228 12.9224 14.6941 13.0702 14.2472 13.0702H12.8936" stroke="#79FA95" stroke-width="1.56907" stroke-miterlimit="10" stroke-linecap="round"/>
<path d="M2.37891 7.88232H12.5802" stroke="#FEFEFE" stroke-width="1.56907" stroke-miterlimit="10" stroke-linecap="round"/>
<path d="M15.9351 5.37842H12.877" stroke="#79FA95" stroke-width="1.56907" stroke-miterlimit="10" stroke-linecap="round"/>
<path d="M16.2292 18.2075H3.20603C2.98642 18.2075 2.77574 18.1206 2.62003 17.9657C2.46431 17.8108 2.37622 17.6005 2.375 17.3809V2.40915C2.37622 2.18949 2.46431 1.97924 2.62003 1.82435C2.77574 1.66946 2.98642 1.58252 3.20603 1.58252H12.0629C12.2822 1.58251 12.4926 1.6692 12.6483 1.8237C12.804 1.97819 12.8923 2.18797 12.894 2.4073L12.9235 18.2075" stroke="#FEFEFE" stroke-width="1.56907" stroke-miterlimit="10" stroke-linecap="round"/>
</svg>
