<svg width="24" height="24" viewBox="0 0 24 24" fill="none" xmlns="http://www.w3.org/2000/svg">
<path d="M15 15C15 15.3978 15.158 15.7794 15.4393 16.0607C15.7206 16.342 16.1022 16.5 16.5 16.5C16.8978 16.5 17.2794 16.342 17.5607 16.0607C17.842 15.7794 18 15.3978 18 15C18 14.6022 17.842 14.2206 17.5607 13.9393C17.2794 13.658 16.8978 13.5 16.5 13.5C16.1022 13.5 15.7206 13.658 15.4393 13.9393C15.158 14.2206 15 14.6022 15 15Z" stroke="#79FA95" stroke-width="1.5" stroke-linecap="round" stroke-linejoin="round"/>
<path d="M15.004 7.803C9.576 7.426 5.104 6.62 3 6V15.061C3 17.056 3 18.053 3.62 18.866C4.24 19.679 5.09 19.909 6.79 20.369C9.536 21.111 12.424 21.553 15.01 21.805C17.692 22.067 19.032 22.198 20.016 21.299C21 20.401 21 18.956 21 16.068V14.054C21 11.249 21 9.847 20.193 8.977C19.386 8.107 17.926 8.005 15.004 7.803Z" stroke="#282426" stroke-width="1.5" stroke-linecap="round" stroke-linejoin="round"/>
<path d="M17.626 7.99993C18.003 6.57693 18.346 3.98793 17.327 2.70293C16.682 1.88793 15.722 1.96693 14.782 2.04893C9.838 2.48393 6.345 3.36693 4.393 3.96693C3.553 4.22493 3 5.04493 3 5.95993" stroke="#282426" stroke-width="1.5" stroke-linecap="round" stroke-linejoin="round"/>
</svg>
