<svg width="15" height="18" viewBox="0 0 15 18" fill="none" xmlns="http://www.w3.org/2000/svg">
<g clip-path="url(#clip0_3028_1541)">
<path fill-rule="evenodd" clip-rule="evenodd" d="M7.56247 16.4721C7.90826 16.4721 14.0869 9.97213 14.0869 6.42425C14.0869 2.87637 11.1658 0.000244141 7.56247 0.000244141C3.95915 0.000244141 1.03809 2.87637 1.03809 6.42425C1.03809 9.97213 7.21669 16.4721 7.56247 16.4721ZM7.56248 9.63734C9.38936 9.63734 10.8704 8.1791 10.8704 6.38032C10.8704 4.58154 9.38936 3.12335 7.56248 3.12335C5.7356 3.12335 4.25462 4.58154 4.25462 6.38032C4.25462 8.1791 5.7356 9.63734 7.56248 9.63734Z" fill="#DBDEE5"/>
<path fill-rule="evenodd" clip-rule="evenodd" d="M1.03809 6.42425C1.03809 9.97213 7.21669 16.4721 7.56247 16.4721V9.63734C5.73559 9.63725 4.25462 8.1791 4.25462 6.38032C4.25462 4.58155 5.73559 3.12336 7.56247 3.12335V0.000244141C3.95915 0.000244141 1.03809 2.87637 1.03809 6.42425Z" fill="#79FA95"/>
</g>
<defs>
<clipPath id="clip0_3028_1541">
<rect width="14" height="17.2308" fill="white" transform="translate(0.5)"/>
</clipPath>
</defs>
</svg>
