<svg width="23" height="29" viewBox="0 0 23 29" fill="none" xmlns="http://www.w3.org/2000/svg">
<path fill-rule="evenodd" clip-rule="evenodd" d="M11.6034 27.0609C12.1715 27.0609 22.322 16.3824 22.322 10.5537C22.322 4.72506 17.5231 0 11.6034 0C5.68365 0 0.884766 4.72506 0.884766 10.5537C0.884766 16.3824 11.0353 27.0609 11.6034 27.0609ZM11.6034 15.8324C14.6047 15.8324 17.0378 13.4367 17.0378 10.4816C17.0378 7.52642 14.6047 5.13081 11.6034 5.13081C8.60211 5.13081 6.16907 7.52642 6.16907 10.4816C6.16907 13.4367 8.60211 15.8324 11.6034 15.8324Z" fill="#1F1E1E"/>
<path fill-rule="evenodd" clip-rule="evenodd" d="M0.884766 10.5537C0.884766 16.3824 11.0353 27.0609 11.6034 27.0609V15.8324C8.6021 15.8322 6.16907 13.4367 6.16907 10.4816C6.16907 7.52643 8.6021 5.13083 11.6034 5.13081V0C5.68365 0 0.884766 4.72506 0.884766 10.5537Z" fill="#2161F5"/>
</svg>
