<svg width="24" height="24" viewBox="0 0 24 24" fill="none" xmlns="http://www.w3.org/2000/svg">
<path d="M15 6.00024H13.5C13.5 5.00568 13.1049 4.05186 12.4017 3.34859C11.6984 2.64533 10.7446 2.25024 9.75 2.25024C8.75544 2.25024 7.80161 2.64533 7.09835 3.34859C6.39509 4.05186 6 5.00568 6 6.00024H4.5C4.5 4.60786 5.05312 3.2725 6.03769 2.28793C7.02226 1.30337 8.35761 0.750244 9.75 0.750244C11.1424 0.750244 12.4777 1.30337 13.4623 2.28793C14.4469 3.2725 15 4.60786 15 6.00024Z" fill="#79FA95"/>
<path d="M18.7497 11.2502C18.3622 11.2516 17.982 11.3551 17.6472 11.5502C17.445 11.2295 17.165 10.9651 16.8333 10.7815C16.5016 10.598 16.1288 10.5012 15.7497 10.5002C15.3622 10.5016 14.982 10.6051 14.6472 10.8002C14.3743 10.3709 13.964 10.0467 13.4832 9.8805C13.0024 9.71433 12.4794 9.716 11.9997 9.88524V6.00024C11.9997 5.40351 11.7626 4.83121 11.3407 4.40925C10.9187 3.9873 10.3464 3.75024 9.74969 3.75024C9.15296 3.75024 8.58066 3.9873 8.1587 4.40925C7.73675 4.83121 7.49969 5.40351 7.49969 6.00024V14.3252L5.82719 13.1852C5.44379 12.8997 4.97773 12.747 4.49969 12.7502C4.05343 12.7491 3.61691 12.8808 3.24565 13.1284C2.87439 13.376 2.58515 13.7285 2.41471 14.1409C2.24427 14.5533 2.20032 15.0071 2.28846 15.4446C2.3766 15.8821 2.59284 16.2835 2.90969 16.5977L8.90969 22.0727C9.75914 22.833 10.8597 23.2524 11.9997 23.2502H15.7497C17.1421 23.2502 18.4774 22.6971 19.462 21.7126C20.4466 20.728 20.9997 19.3926 20.9997 18.0002V13.5002C20.9997 12.9035 20.7626 12.3312 20.3407 11.9093C19.9187 11.4873 19.3464 11.2502 18.7497 11.2502ZM19.4997 18.0002C19.4997 18.9948 19.1046 19.9486 18.4013 20.6519C17.6981 21.3552 16.7443 21.7502 15.7497 21.7502H11.9997C11.2416 21.7594 10.506 21.4929 9.92969 21.0002L3.96719 15.5252C3.82864 15.3855 3.75052 15.197 3.74969 15.0002C3.74969 14.861 3.78848 14.7244 3.86171 14.6059C3.93493 14.4875 4.0397 14.3917 4.16428 14.3294C4.28886 14.2671 4.42833 14.2408 4.56705 14.2533C4.70577 14.2658 4.83827 14.3167 4.94969 14.4002L8.99969 17.1752V6.00024C8.99969 5.80133 9.07871 5.61057 9.21936 5.46991C9.36002 5.32926 9.55078 5.25024 9.74969 5.25024C9.94861 5.25024 10.1394 5.32926 10.28 5.46991C10.4207 5.61057 10.4997 5.80133 10.4997 6.00024V14.2502H11.9997V12.0002C11.9997 11.8013 12.0787 11.6106 12.2194 11.4699C12.36 11.3293 12.5508 11.2502 12.7497 11.2502C12.9486 11.2502 13.1394 11.3293 13.28 11.4699C13.4207 11.6106 13.4997 11.8013 13.4997 12.0002V14.2502H14.9997V12.7502C14.9997 12.5513 15.0787 12.3606 15.2194 12.2199C15.36 12.0793 15.5508 12.0002 15.7497 12.0002C15.9486 12.0002 16.1394 12.0793 16.28 12.2199C16.4207 12.3606 16.4997 12.5513 16.4997 12.7502V14.2502H17.9997V13.5002C17.9997 13.3013 18.0787 13.1106 18.2194 12.9699C18.36 12.8293 18.5508 12.7502 18.7497 12.7502C18.9486 12.7502 19.1394 12.8293 19.28 12.9699C19.4207 13.1106 19.4997 13.3013 19.4997 13.5002V18.0002Z" fill="white"/>
</svg>
