<svg width="113" height="92" viewBox="0 0 113 92" fill="none" xmlns="http://www.w3.org/2000/svg">
<g opacity="0.3" clip-path="url(#clip0_210_1436)">
<path d="M29.792 85.5839L30.2724 85.4672L30.2595 86.0491L30.5029 86.0996L31.0544 85.9026L30.9706 86.0547L31.1353 86.1334L31.4961 85.9378L31.7427 86.0082L31.9248 85.7691L32.1151 85.8347L32.4011 85.7188L32.8509 85.9471L33.2517 85.7082L34.4445 85.6156L34.6683 85.3103L34.9509 85.2936L35.4018 85.0442L35.431 85.2364L35.7847 85.5838L36.1558 85.5229L37.3864 85.6843L37.5212 85.4742L37.9261 85.5251L38.0298 85.4051L38.5834 85.2375L38.407 84.4838L38.4819 84.0538L38.7264 83.9146L38.797 83.6247L39.2149 83.4348L39.2357 83.1802L40.8366 82.8766L40.9142 82.5758L41.2675 82.5282L41.4829 82.577L41.654 82.4215L42.0479 82.3855L42.3047 82.2265L42.7466 82.2838L42.851 82.7363L43.0975 82.887L43.1639 83.1079L43.0724 83.3112L42.6231 83.3827L42.8483 83.9208L42.5259 84.285L42.6105 84.4042L42.4281 84.4349L42.2674 84.6219L42.3133 84.8108L42.0989 85.0554L42.1582 85.6061L42.0579 85.8877L42.5605 85.847L42.7762 85.948L43.1951 86.408L43.3156 86.8098L43.1895 86.9566L42.4937 87.1442L42.2621 87.034L41.9142 87.2573L41.6538 87.0835L41.2959 87.1201L40.216 87.9715L40.6876 88.5636L40.7308 88.8088L40.6163 88.9332L40.1755 88.9918L39.6164 88.4705L39.5391 88.2241L39.3331 88.1969L39.2126 87.9872L38.8581 87.9993L38.6683 88.1137L38.4996 88.7382L38.3241 88.9516L37.7792 88.9425L37.4889 88.7601L37.2554 88.7622L37.007 89.2724L36.5699 89.5075L36.6718 89.5805L36.4585 89.8295L36.3016 89.8604L36.313 90.066L36.0723 90.1448L35.467 90.6736L35.0944 90.6917L34.7463 90.8631L34.4172 90.8161L34.398 91.188L34.283 91.2811L33.3625 91.5101L33.2296 91.4454L33.2566 91.2729L32.9956 91.1422L32.0001 91.0585L31.9375 91.1928L32.2688 91.375L32.9385 92.3664L32.9594 92.6233L31.7198 91.3075L30.7135 90.0043L30.1159 88.6093L29.0911 87.1621L29.0489 86.5054L29.2795 86.878L29.437 86.3518L29.3198 86.1994L29.6917 85.9848L29.7924 85.5853L29.792 85.5839Z" fill="#979797" stroke="white" stroke-width="0.5" stroke-miterlimit="10"/>
<path d="M30.2347 76.5291L30.3873 76.541L30.3907 76.3539L30.6719 76.2436L30.4651 76.1449L30.467 76.0267L30.6561 75.9766L30.6449 75.8678L31.0299 75.9101L31.3794 75.7148L31.4573 75.46L31.9252 75.2375L31.6831 75.2151L32.1945 74.8454L32.265 74.6433L32.6102 74.7293L33.0388 74.5291L32.9544 74.7081L33.1734 74.7469L33.2702 74.9046L33.5224 74.7886L33.8725 74.8032L34.2775 75.152L34.5152 75.1067L35.1896 74.5568L35.2376 74.3146L35.8625 73.9345L36.5939 73.1546L37.6221 73.4574L37.4932 73.7136L37.6173 73.8251L38.5734 74.0637L39.303 74.5681L39.4811 74.4524L39.706 74.5372L39.982 74.8442L39.5077 75.2951L39.7072 75.6464L39.8271 76.4317L39.0325 76.675L38.903 76.9954L38.4382 76.977L38.852 77.2475L39.0394 78.0074L39.5331 78.6086L39.9006 78.2069L40.9403 77.9089L41.2059 77.9845L41.2441 78.2247L40.9725 78.4829L40.8819 78.9422L40.5628 79.015L40.3552 79.9748L40.0964 80.4087L40.8278 81.6832L41.2488 82.0262L41.2647 82.5305L40.9113 82.5781L40.8338 82.8789L39.2328 83.1825L39.212 83.4371L38.7941 83.627L38.7235 83.9169L38.4791 84.0561L38.4041 84.486L38.5805 85.2398L38.0269 85.4074L37.9232 85.5274L37.5183 85.4765L37.3835 85.6866L36.153 85.5251L35.7819 85.5861L35.4281 85.2387L35.399 85.0465L34.9481 85.2959L34.6654 85.3126L34.4416 85.6179L33.2488 85.7105L32.848 85.9494L32.3982 85.7211L32.1123 85.837L31.922 85.7714L31.7398 86.0105L31.4933 85.9401L31.1324 86.1357L30.9678 86.057L31.0515 85.9049L30.5 86.1018L30.2566 86.0514L30.2695 85.4695L29.7891 85.5862L29.5579 84.9213L26.1709 79.7855L26.2035 79.6187L26.4418 79.5228L26.6793 79.6685L26.5466 80.2881L27.1236 81.055L27.3932 81.1594L27.5163 81.5786L27.9146 81.7907L27.8941 82.0464L28.1664 82.1159L28.3884 81.9154L28.4193 81.4896L28.4835 81.732L28.7044 81.8151L28.8056 81.5289L28.2502 80.2644L27.3476 79.5598L27.0024 79.793L27.0061 79.9636L26.9363 79.9077L26.8407 80.0075L26.7629 79.6688L26.5591 79.5228L26.8313 78.932L26.5997 77.5981L26.8709 77.501L26.6401 77.5055L26.8882 77.4547L27.0133 77.3039L27.3332 77.4277L27.7642 76.9167L28.3014 77.0518L28.6007 76.941L28.6323 76.7626L28.8714 76.8558L29.0109 76.6772L29.0158 77.0738L29.2855 76.9338L29.2224 76.7329L29.577 76.594L29.5987 76.4466L30.2371 76.5265L30.2347 76.5291Z" fill="#979797" stroke="white" stroke-width="0.5" stroke-miterlimit="10"/>
<path d="M32.9571 92.6208L32.9362 92.3639L32.2664 91.3725L31.9352 91.1903L31.9977 91.056L32.9933 91.1397L33.2543 91.2704L33.2273 91.4429L33.3602 91.5076L34.2807 91.2786L34.3956 91.1855L34.4149 90.8136L34.744 90.8606L35.0921 90.6892L35.4647 90.6711L36.0699 90.1423L36.3107 90.0635L36.2993 89.8579L36.4562 89.827L36.6695 89.578L36.5676 89.505L37.0046 89.2699L37.253 88.7597L37.4866 88.7576L37.7769 88.94L38.3218 88.9491L38.4972 88.7357L38.666 88.1112L38.8558 87.9968L39.2103 87.9847L39.3307 88.1944L39.5368 88.2216L39.614 88.468L40.1732 88.9893L40.614 88.9307L40.7284 88.8063L40.6854 88.5615L40.2138 87.9694L41.2937 87.1179L41.6515 87.0813L41.912 87.2551L42.2598 87.0319L42.4915 87.1421L42.4679 87.3136L42.7233 87.6171L43.1692 87.8834L43.3453 88.5105L44.0521 89.152L44.0609 89.2438L43.818 89.2696L43.8448 89.3786L44.3626 89.7376L44.7159 90.2167L44.9693 90.2227L45.2417 90.4634L45.8517 90.5611L46.2211 90.8268L46.3826 91.1091L46.3537 91.3702L46.6679 91.6506L46.894 91.7398L47.7377 91.6445L48.6745 92.0491L49.2507 92.6658L49.0852 92.6798L48.6071 93.0793L49.1408 93.4538L49.1515 93.5761L52.4447 95.585L52.8635 96.045L52.6426 96.0201L52.3432 96.1444L52.0043 96.4833L51.7977 96.5129L51.1792 96.9468L50.507 97.556L50.0693 97.6555L49.7367 97.8912L50.0657 98.6955L50.2212 98.9121L50.545 99.2289L50.524 99.6981L50.3479 99.7015L49.5091 99.2457L49.208 99.2747L48.184 98.8605L47.8628 98.8355L47.0655 98.965L47.0008 99.2399L46.8031 99.2656L46.9094 99.6294L46.3327 99.9314L44.8969 99.9377L44.0363 100.193L43.7146 100.136L43.1606 99.797L42.169 99.6245L41.5745 99.912L41.1579 99.6898L40.2254 99.5911L39.8371 99.6833L39.5672 99.4074L39.2439 99.3663L38.93 99.4436L38.8584 99.6787L38.6692 99.8032L38.2126 99.5201L37.7822 99.3496L37.5138 99.087L37.4041 98.7984L37.6861 98.4895L37.6289 98.2288L37.2438 97.8137L37.4008 97.656L37.2741 97.4227L36.1594 96.208L35.2785 95.0057L33.8364 93.4902L33.081 92.8808L32.9573 92.6216L32.9571 92.6208Z" fill="#979797" stroke="white" stroke-width="0.5" stroke-miterlimit="10"/>
<path d="M51.9861 65.2514L52.2486 65.2995L52.3932 65.6591L52.6176 65.6519L53.0244 65.8586L53.2366 65.8055L53.5314 65.954L54.1201 65.9873L54.5901 66.2386L55.2358 66.2268L55.8049 66.4369L56.4464 66.2834L57.4296 65.9349L57.6511 65.6287L57.5377 65.0892L57.649 64.7004L57.0081 63.9296L57.8643 63.1839L58.0794 63.2162L58.115 63.417L58.4086 63.375L59.006 63.6625L59.2773 63.5875L59.4534 63.7541L59.8468 63.7616L60.0797 63.9352L60.5287 63.8863L60.8747 63.462L61.1076 63.3617L60.9966 63.166L61.4042 62.6868L62.0967 62.4064L62.4125 62.0409L62.8602 61.8537L63.4967 61.9637L63.7568 61.6621L64.1655 61.5062L64.6028 61.8791L64.6672 61.6695L65.015 61.6832L65.0819 61.2971L65.3823 60.9833L65.3659 60.7507L65.8362 60.7079L66.3464 60.4743L66.8897 60.3795L67.3833 62.0929L67.2723 62.5336L67.6763 62.7009L67.9163 62.9832L67.8833 63.8535L70.3543 67.13L70.172 67.688L69.2782 68.041L69.0179 68.602L68.0264 68.7412L66.9104 68.9745L66.2401 69.258L65.8721 69.9026L65.6686 69.8106L65.604 69.5592L65.1447 69.7554L64.9002 69.7533L64.5614 69.9655L62.9843 70.136L62.6526 70.0421L62.4738 69.4499L61.8899 69.2721L61.6095 69.0229L61.4034 69.0327L60.5915 68.641L60.2647 68.595L60.2272 68.714L60.5451 69.0965L60.4631 69.2182L60.8407 69.4715L61.0771 69.488L61.0722 69.7888L61.2836 69.8595L61.2196 70.1L61.5178 70.5279L60.6162 71.8657L60.2991 72.0423L60.1184 72.6806L59.4408 73.6473L59.2682 74.3027L58.8529 74.3829L58.2744 74.2918L57.6998 74.4099L57.3304 74.618L57.2565 75.058L57.0827 75.2858L55.2965 75.9069L55.0044 75.7549L54.6557 76.004L54.3678 75.9343L53.946 76.2936L53.9595 76.6344L54.4109 76.4239L54.9056 76.8056L54.9532 77.0224L55.5536 77.3135L55.9798 77.3781L56.2459 77.6476L56.8121 77.9076L56.5556 78.2381L56.5423 78.8694L56.1457 79.1398L56.2668 79.5595L55.8611 79.6388L55.7921 79.8464L55.3769 79.9115L54.7339 79.4365L53.687 79.1059L53.4744 78.727L52.7102 78.2333L52.6783 78.0541L52.3678 78.1363L51.7034 77.974L51.4008 78.3226L51.1684 77.8163L51.1968 77.5002L51.4117 77.2122L51.173 77.2696L50.5166 76.3656L50.1111 76.0972L50.4202 75.7649L50.9567 75.6152L51.2176 75.391L51.376 75.4325L52.0331 75.1599L52.0585 74.9579L52.2044 74.9444L52.2389 74.4732L52.6568 74.2775L52.8303 74.3897L52.9304 74.2112L53.1285 74.1945L52.8463 73.9309L52.9661 73.768L53.4499 73.6189L53.487 73.53L53.3036 73.2984L51.9066 72.7831L51.8467 72.653L52.1538 72.3508L52.0514 71.9485L51.8663 71.8067L51.5271 71.7667L51.1913 71.4712L50.2459 71.555L50.068 71.4187L50.2228 71.2895L50.1553 70.939L49.114 70.5711L48.9679 70.4056L48.3675 70.3888L47.9897 70.2623L47.7685 70.1406L47.4194 69.4834L47.7137 69.3247L48.0405 69.4081L48.3254 69.2L48.6432 69.3082L48.85 69.2502L48.4728 69.0432L48.628 68.5908L48.8874 68.4413L49.0034 67.9292L48.8535 67.7572L48.5454 67.7228L48.5054 67.5425L48.765 67.4095L48.9542 67.5456L49.2405 67.4547L50.3395 67.7955L50.7242 67.592L50.4983 66.9631L50.9687 66.8458L50.9714 66.6483L51.2573 66.6517L51.3612 66.5092L51.7756 66.5663L51.937 66.4251L51.8248 66.2253L51.5069 66.1246L51.4842 65.8236L51.1656 65.7263L51.1917 65.6092L51.6408 65.5527L51.6806 65.3914L51.9839 65.2528L51.9861 65.2514Z" fill="#979797" stroke="white" stroke-width="0.5" stroke-miterlimit="10"/>
<path d="M54.9035 47.7677L55.547 47.9549L55.6296 48.0806L55.6827 47.9772L55.8999 48.0329L56.0579 48.7916L56.4518 48.8615L56.8603 48.8084L56.7614 48.3532L57.2923 48.0039L57.5214 48.0223L57.7822 48.2424L58.3101 48.0757L58.8733 48.2126L58.222 48.6403L58.1709 49.086L57.9112 49.62L58.0125 51.4552L58.1348 51.7463L58.0369 52.6755L57.7432 52.895L57.9145 53.2223L57.5826 53.4548L57.3905 53.3388L56.9413 53.5578L56.7343 53.9185L56.9488 54.0227L57.2657 55.5295L57.8998 56.3276L57.8124 56.6952L57.4494 56.6379L58.2389 56.9608L59.1892 56.6581L59.4136 56.8371L59.7825 56.4934L60.3649 56.2957L60.4687 55.9372L60.8163 55.5798L60.9825 55.8427L61.2042 55.878L61.5405 55.7365L61.8604 55.9485L61.8424 54.8858L62.6857 54.6399L63.5323 54.6437L64.0381 54.3487L65.4142 53.9095L65.7013 53.665L66.0032 54.2769L65.8879 54.6058L66.166 54.8674L66.3569 55.3056L66.0116 55.9458L66.0082 56.4969L66.1562 56.8556L66.1075 57.2947L66.2746 57.6216L66.2155 58.1993L66.8916 60.38L66.3483 60.4748L65.8382 60.7084L65.3678 60.7512L65.3842 60.9838L65.0838 61.2976L65.0169 61.6837L64.6691 61.6701L64.6047 61.8796L64.1674 61.5067L63.7587 61.6626L63.4986 61.9642L62.8621 61.8543L62.4144 62.0414L62.0986 62.4069L61.4061 62.6873L60.9985 63.1665L61.1095 63.3622L60.8766 63.4625L60.5306 63.8868L60.0816 63.9358L59.8487 63.7621L59.4553 63.7546L59.2793 63.588L59.0079 63.6631L58.4105 63.3755L58.1169 63.4175L58.0814 63.2168L57.8662 63.1844L57.01 63.9301L57.6509 64.7009L57.5396 65.0897L57.653 65.6292L57.4315 65.9355L56.4483 66.2839L55.8068 66.4374L55.2377 66.2273L54.592 66.2391L54.122 65.9878L53.5333 65.9545L53.2385 65.806L53.0263 65.8591L52.6195 65.6524L52.3951 65.6596L52.2505 65.3L51.988 65.2519L51.8452 64.9422L51.991 64.6619L52.1959 64.6182L51.9731 64.4163L51.8872 63.7728L51.6948 63.7148L51.6833 63.597L51.4517 63.6867L51.4737 63.429L51.0828 63.1197L50.8708 63.1208L50.9181 62.943L50.7777 62.7775L51.0244 62.0474L51.4094 61.8528L51.0682 61.3529L51.2475 60.9386L50.812 60.7273L50.6609 60.4021L50.2767 60.4056L49.9947 60.2328L49.7109 59.7342L49.9348 59.5839L49.9186 59.4032L49.6683 59.1193L49.4603 58.438L49.0128 58.4791L48.8208 57.6728L48.016 57.1883L47.8489 56.8614L47.3155 56.9702L46.9832 56.778L46.7362 56.0831L46.8583 55.8465L46.8093 55.5285L47.7056 55.2535L49.0547 54.2445L49.3082 53.5913L49.8443 53.485L50.0186 53.7115L50.2861 53.7122L50.7856 53.1937L51.0393 53.1265L50.9398 52.7294L51.491 52.4058L51.1613 52.1413L51.8514 51.5038L51.5729 50.6311L51.6927 50.5485L51.6876 50.1964L52.0263 50.0051L52.5853 50.0596L53.1957 48.8395L53.4623 48.7779L53.6307 48.5081L54.9036 47.7681L54.9035 47.7677Z" fill="#979797" stroke="white" stroke-width="0.5" stroke-miterlimit="10"/>
<path d="M51.4022 78.3215L51.7048 77.9729L52.3692 78.1352L52.6797 78.0529L52.7116 78.2322L53.4758 78.7259L53.6884 79.1048L54.7353 79.4354L55.3783 79.9104L55.7934 79.8452L55.8625 79.6376L56.2682 79.5584L56.1471 79.1387L56.5436 78.8683L56.557 78.237L56.8135 77.9065L56.2473 77.6464L55.9812 77.3769L55.555 77.3124L54.9546 77.0213L54.9069 76.8045L54.4123 76.4228L53.9609 76.6333L53.9474 76.2925L54.3692 75.9332L54.6571 76.0029L55.0058 75.7538L55.2979 75.9058L57.0841 75.2847L57.2579 75.0568L57.3318 74.6169L57.7012 74.4088L58.2757 74.2907L58.8543 74.3818L59.2696 74.3016L59.4422 73.6462L60.1198 72.6794L60.3005 72.0412L60.6176 71.8646L61.5192 70.5267L61.221 70.0989L61.285 69.8584L61.0736 69.7876L61.0785 69.4868L60.8421 69.4704L60.4645 69.217L60.5464 69.0954L60.2286 68.7128L60.2661 68.5939L60.5929 68.6399L61.4048 69.0316L61.6109 69.0218L61.8913 69.271L62.4752 69.4488L62.654 70.041L62.9857 70.1349L64.5628 69.9644L64.9016 69.7522L65.1461 69.7543L65.6054 69.5581L65.67 69.8094L65.8735 69.9015L66.2415 69.2569L66.9117 68.9733L68.0278 68.7401L67.9556 68.9651L68.9253 69.8053L69.0146 70.2303L68.666 70.235L68.706 70.6837L69.0583 70.6635L69.3212 70.7875L69.0806 71.0374L68.9674 71.47L69.1296 71.5553L69.1207 71.7663L69.6562 71.9986L69.4288 72.1648L69.4136 72.5014L68.941 72.8919L68.9219 73.243L68.6224 73.4625L68.748 73.9735L68.6158 74.885L67.9384 75.4747L67.6755 75.507L67.0919 75.8061L66.5881 75.8055L65.7608 76.697L65.7677 77.4733L65.3226 77.9148L64.0312 78.1839L63.8815 78.383L63.97 78.5386L65.2231 78.4658L65.2205 78.6932L65.4642 78.7077L65.4523 79.0643L65.6417 78.9484L65.929 79.0375L65.9079 79.4768L66.6642 79.786L66.5284 80.1648L66.2903 80.3338L65.992 80.3503L65.9134 80.4845L66.1126 80.7092L66.8971 80.7232L66.8583 81.0078L66.5938 81.3672L66.1802 81.4009L65.9781 81.5647L65.3627 82.2689L64.7807 82.2922L63.8346 83.1451L63.3043 83.1322L62.4319 83.6169L61.9488 83.6198L60.706 83.8642L60.695 84.0891L60.5164 84.238L59.8191 84.3587L59.0208 84.3885L57.42 84.677L56.2817 84.6269L55.7116 85.0063L55.06 84.9137L54.6522 84.9695L54.0608 84.5851L54.4794 84.1179L54.3982 84.0485L54.2137 84.1242L54.0473 84.0074L54.0726 83.5252L54.3335 83.3384L54.5281 82.9306L54.4115 82.8021L54.0451 82.7634L53.975 82.536L53.7354 82.4118L53.7364 81.9554L52.9854 81.8069L52.2321 81.9558L51.9913 81.8406L51.1309 81.8435L51.1203 81.596L51.2315 81.5473L50.9883 80.6144L51.2102 80.2647L51.0848 80.0205L50.5707 79.8242L50.545 79.6236L50.6714 79.4248L51.1311 79.2671L51.6321 78.5975L51.6066 78.3897L51.4661 78.4238L51.4032 78.3196L51.4022 78.3215Z" fill="#979797" stroke="white" stroke-width="0.5" stroke-miterlimit="10"/>
<path d="M97.1349 79.7119L97.3694 79.8406L97.5916 79.8191L97.7187 80.009L98.1354 80.1413L98.5156 80.4475L98.975 80.2439L99.4856 80.2861L99.9607 80.6627L100.483 80.7792L101.145 80.6203L101.265 80.6571L101.248 80.9283L100.967 81.4457L99.9943 82.3462L99.9249 82.7074L99.653 83.0463L99.104 83.341L98.517 83.8725L98.5307 84.0865L98.7433 84.1462L98.1593 84.8438L97.2295 85.4897L96.8243 85.9565L97.1143 85.9304L95.8065 86.5604L95.031 87.0836L94.8134 87.3829L94.9861 87.5371L94.8058 87.8517L94.4318 88.1016L94.4465 88.4897L94.1442 88.5951L93.9559 88.7524L93.0131 89.2692L92.1354 90.6542L91.8098 90.9983L91.1584 91.3218L90.9837 91.4932L90.9796 91.6852L89.8571 92.3094L89.8399 92.6225L89.4341 92.997L89.4639 93.1544L88.3821 93.5171L87.5267 94.1106L86.4982 94.4667L86.026 94.9256L86.0691 95.0885L84.7466 95.5808L85.0333 95.3796L85.0231 95.0081L85.1321 95.0866L85.232 95.0109L84.8441 94.8304L84.4224 94.9823L84.53 94.8538L84.3622 94.6732L84.3802 94.7861L84.2301 94.8424L84.3014 95.0234L83.9843 95.2L84.2166 95.2459L84.1717 95.4919L84.5544 95.69L84.1861 96.0887L83.4446 96.4521L83.2793 96.6959L82.7606 96.9424L82.6991 97.2078L82.8833 97.235L81.793 97.5732L81.6288 97.7761L80.1685 98.2541L80.0045 98.4286L78.7734 98.7998L78.0027 99.1785L77.4585 99.6986L76.3095 100.052L75.9624 100.286L75.9926 100.437L75.7918 100.473L74.8358 101.102L74.5203 101.195L74.4378 101.217L73.6743 101.577L73.6337 101.922L73.4786 102.087L72.8475 102.154L71.8789 102.528L71.4075 102.828L71.2302 103.116L71.3665 103.298L71.0229 103.455L70.742 103.93L70.4893 103.972L70.4041 104.111L70.2513 104.077L70.2105 104.213L69.8528 104.273L69.6116 104.446L69.5512 104.671L69.7127 104.702L69.3853 104.84L69.2902 105.016L69.4065 105.292L69.1339 105.139L68.8625 105.228L67.9726 105.032L67.4497 105.246L67.2631 104.758L67.6096 104.543L67.6232 104.365L67.3097 104.207L66.3891 104.488L66.1847 104.132L65.8283 104.1L66.0006 103.778L66.3873 103.612L66.7179 103.271L66.923 103.318L67.0518 103.173L67.0535 103.001L66.9265 102.953L67.0155 102.807L66.4835 102.535L66.4906 102.354L66.3198 102.2L66.4192 101.973L66.8065 101.668L66.6982 101.542L66.414 101.523L65.5864 101.881L65.3961 101.653L64.8983 101.637L64.788 101.444L65.0456 101.139L65.1805 100.573L65.0475 100.39L64.7712 100.594L64.2199 100.717L63.8276 100.483L63.4674 100.54L63.1344 100.449L62.9335 100.173L63.376 99.3057L63.3824 98.8403L63.6593 98.3867L64.4734 97.9056L64.0484 97.7337L64.331 97.1684L63.9599 96.8063L64.4287 96.5793L65.6821 96.2337L66.0147 96.3171L66.8085 96.2334L67.9356 96.3983L68.3619 96.3302L69.4564 96.4171L70.4552 96.2016L71.6394 95.6909L72.0957 95.7281L72.721 96.1736L73.0922 95.9934L73.8338 96.1278L74.5853 95.8687L74.9951 96.1238L75.3957 95.6925L74.8755 95.2577L74.7346 94.9121L74.4961 94.9545L74.2872 94.6029L73.7574 94.4139L74.5909 93.7667L74.9638 93.5561L75.316 93.1124L75.8346 92.8872L77.0336 92.0774L77.0895 91.6364L76.7374 91.4361L76.4543 91.4962L76.3458 90.9672L76.4683 90.6872L77.3833 90.5863L77.7289 90.0279L77.6028 89.6111L78.1454 89.7818L78.3381 89.6547L78.3966 89.3409L79.0682 89.1522L79.5619 89.1973L80.8605 88.7696L81.3221 89.3537L81.5278 89.2543L81.813 89.3724L82.1159 89.2756L82.2274 88.954L82.7317 88.7412L83.6039 89.1763L84.0063 89.5526L84.5707 89.6863L84.5108 89.9498L85.0985 90.0384L85.4693 89.8803L85.7767 89.8748L86.0902 89.6335L86.4089 89.279L86.4886 88.8375L87.6676 88.1971L87.8696 88.2837L88.2021 87.987L88.3955 88.0117L88.6917 87.8599L89.058 87.5361L89.6178 87.3626L89.7838 87.0919L90.178 86.9768L90.4045 86.4291L90.611 86.3995L90.7416 86.5885L91.4296 86.321L91.6467 85.9982L91.9816 85.9496L92.0812 85.828L92.4394 85.918L92.9205 85.8039L93.1781 85.9217L93.3687 85.8397L93.5707 85.4524L93.2205 84.6581L93.473 84.126L93.1521 83.9474L93.0168 83.5703L93.0874 83.2805L93.9208 82.5077L94.4608 82.2005L94.6692 81.6592L95.1867 81.5043L95.7285 80.8179L96.3444 80.768L96.5518 80.4088L96.9549 80.2901L97.1342 79.7132L97.1349 79.7119Z" fill="#979797" stroke="white" stroke-width="0.5" stroke-miterlimit="10"/>
<path d="M37.9755 7.97389L39.031 8.29943L38.0119 8.40111L37.9755 7.97389ZM2.87362 14.9753L3.22694 14.8981L3.60625 15.2089L4.09081 15.2489L4.15807 15.3401L5.22379 15.1245L5.42355 15.1731L5.89172 16.1089L5.74942 16.567L5.13821 16.7542L4.65476 16.7556L2.93536 16.4557L2.48352 15.3739L2.61831 15.052L2.82552 14.9211L2.87314 14.9754L2.87362 14.9753ZM7.43521 12.3709L7.58229 12.5928L7.79097 12.63L7.80672 12.9793L7.41577 12.9144L7.31872 12.5033L7.43521 12.3709ZM6.37781 11.9951L6.55803 12.0071L6.77024 13.0525L6.42545 13.0423L6.25317 12.8526L6.1185 12.2996L6.37791 11.9954L6.37781 11.9951ZM9.38438 10.7939L9.80857 10.9841L9.77446 11.2706L9.39868 11.1435L9.25817 10.9033L9.38438 10.7939ZM6.31762 10.025L6.61847 10.6175L6.24254 11.1048L6.40712 11.1029L6.3718 11.3476L5.80448 11.0777L5.95758 10.49L6.31811 10.0249L6.31762 10.025ZM9.03315 8.80889L9.56241 8.98032L9.86056 8.85956L9.99755 8.67133L10.2901 8.73704L10.4553 8.94514L10.7239 9.00068L10.6209 9.27988L11.0768 9.5467L11.111 9.38573L10.8609 9.3178L11.5767 8.98478L11.2842 8.91907L12.0359 8.84655L12.0888 8.75655L12.1929 9.1493L12.046 9.13747L11.9323 9.25105L11.8021 9.30211L11.787 9.40766L12.8688 9.66797L13.7506 9.75342L14.0661 9.65325L14.0206 9.56377L14.2229 9.45938L14.1164 9.30261L14.7349 9.30713L15.0617 9.46491L14.9579 9.77855L15.0874 10.0142L15.0281 10.2059L14.556 10.5829L14.0411 10.636L13.726 10.5676L13.6195 10.4183L13.7561 10.3911L13.7804 10.5279L14.1444 10.448L14.1982 9.94608L13.9987 10.2764L13.5031 10.3571L13.1188 10.198L12.4324 10.1446L11.754 10.2409L11.4585 10.8321L11.1367 10.9009L10.8445 10.7933L9.88511 11.5353L9.97089 11.6141L9.85194 11.9526L10.046 12.107L9.96531 12.3803L10.1354 12.5619L10.0159 12.6534L9.54937 12.844L7.95065 12.9994L7.79298 12.6043L7.95911 12.526L8.00097 12.3138L7.76836 12.2235L7.89969 12.0962L7.74817 11.7322L7.8604 11.4505L8.06128 11.5406L8.20153 11.4018L8.24354 11.6426L8.43882 11.6743L8.34683 12.0773L8.80288 12.2173L8.9598 12.1415L8.92841 12.0231L9.48583 11.9678L9.15039 11.9048L9.01173 11.6716L9.01208 11.7982L8.39053 11.9464L8.43282 11.6908L8.82524 11.6809L9.11023 11.3459L9.86172 11.5254L10.8682 10.7532L10.1743 10.5837L10.0286 10.6566L9.62327 10.2929L9.6616 10.1261L9.94657 10.0222L10.0495 9.8682L9.99339 9.65638L9.71264 9.55487L9.41073 9.61837L9.41731 9.76855L9.49417 9.68835L9.73497 9.8095L9.66606 10.047L9.44228 10.1154L9.09796 9.93664L8.66724 9.63952L8.57903 9.46926L8.77181 9.28395L8.38384 9.19315L8.32175 9.04116L8.83779 8.95514L9.03131 8.80978L9.03315 8.80889ZM7.28126 8.92889L7.40956 9.82806L7.15448 9.53358L7.12951 9.18677L7.28126 8.92889ZM21.1914 1.59791L22.667 1.51849L23.2327 2.11713L24.2917 2.91441L26.598 4.39024L27.9511 5.00644L34.264 6.84853L34.9919 7.1015L35.1179 7.24403L37.7778 7.9763L37.8965 8.17153L37.8214 8.25835L37.4608 8.27051L35.7535 7.89104L36.0033 7.87561L35.8957 7.80259L35.4474 7.8545L34.5624 7.66875L33.4901 7.73219L33.2074 7.86814L33.1023 7.76177L32.3195 7.65009L32.207 7.10608L31.7571 6.68574L29.781 6.13035L26.9527 5.7127L25.2964 4.89504L24.3817 7.46041L22.5239 7.18658L21.2011 7.10033L20.7703 7.17282L20.4427 7.55483L20.7349 7.66235L20.8779 7.41429L21.0724 7.4804L21.2105 7.83895L21.0926 7.97175L21.241 8.03397L20.7428 8.12863L21.1985 8.14205L21.4631 7.93771L21.6011 7.96095L21.7357 7.89102L21.9854 7.87559L22.1982 7.92821L22.1219 8.10037L22.2976 8.09551L21.8665 8.41994L21.4933 8.38467L21.2776 8.48357L21.4363 8.58477L21.6837 8.44321L21.8965 8.49583L21.8631 8.62237L22.1668 8.44032L22.1951 8.59221L21.9209 8.72314L22.2298 8.76801L22.3222 8.82694L22.8383 8.74092L22.5694 8.92121L21.3706 8.76787L20.1591 8.30618L18.6674 8.20529L17.5704 8.05015L17.4407 7.93103L17.475 8.18565L17.5759 8.27657L17.6516 8.39976L18.3522 8.42423L19.3667 8.84566L19.9597 8.79748L19.6837 8.92142L18.5462 8.91123L16.5638 8.49449L16.2941 8.51519L16.1397 8.68285L15.3614 8.78014L14.753 8.56279L14.5035 9.07484L14.9658 9.23843L14.56 9.28776L14.3839 9.16598L14.7359 8.54331L14.4382 8.37782L14.297 7.92759L13.9438 7.87795L13.7876 8.16379L13.6248 8.17268L13.112 7.98078L12.9601 7.78568L12.661 8.19281L12.7149 8.271L12.203 8.37247L11.8976 8.0075L11.6106 7.88246L11.5723 7.53051L10.9655 7.11161L10.1575 7.46906L10.2298 7.7868L9.94609 7.83681L10.2108 8.21257L9.80995 8.57071L9.227 8.70005L9.17305 8.62186L8.63819 8.6369L8.93692 8.10313L8.51029 7.57666L8.73391 7.1297L9.37052 6.9952L10.0521 6.6209L10.1057 6.7409L9.92211 6.84938L10.0867 6.96514L10.0791 7.39656L10.9237 7.09673L10.7266 6.9388L10.4788 6.95372L10.2576 6.74233L10.3814 6.29666L11.0429 6.0544L11.484 5.68559L11.5334 5.41156L12.9201 4.53863L14.0683 4.05675L14.5599 3.96068L14.6953 3.84882L16.0447 3.71037L17.2244 3.46457L17.6085 3.29585L18.1143 2.87564L18.354 2.90458L18.5014 2.63016L20.2945 2.08794L21.1917 1.60098L21.1914 1.59791Z" fill="#979797" stroke="white" stroke-width="0.5" stroke-miterlimit="10"/>
<path d="M16.6509 18.7697L16.9537 18.9995L17.0557 19.2587L17.2088 19.294L17.2539 19.1313L17.5669 19.1916L17.653 19.4715L17.4594 19.6987L17.2332 19.4233L16.9935 19.3944L16.6195 19.6443L16.327 19.5785L16.2077 19.291L16.4734 19.1281L16.6518 18.769L16.6509 18.7697ZM19.8643 17.481L20.1904 17.4288L20.5336 17.6405L20.1049 17.7289L19.8042 17.5894L19.8638 17.4811L19.8643 17.481ZM19.0153 16.9339L19.2373 17.4386L18.971 17.3915L19.0148 16.934L19.0153 16.9339ZM16.3582 13.5115L16.5671 13.5577L16.6138 13.6886L16.5633 13.9956L16.4486 14.0602L16.0771 13.6966L16.1033 13.5881L16.3582 13.5115ZM24.3753 7.45962L25.2901 4.89425L26.9463 5.71191L29.7746 6.12956L31.7507 6.68495L32.2006 7.10529L32.3131 7.6493L32.1051 7.5108L31.941 7.97464L31.5481 8.02801L31.6312 8.21615L31.7615 8.16509L31.7909 8.35841L32.0111 8.4016L31.714 8.4461L31.1456 8.25239L30.367 8.22341L30.7513 8.50766L30.6547 8.55846L30.7185 8.8442L31.0077 8.97771L31.0909 8.92141L31.264 8.9515L31.3265 8.81725L31.2219 8.70484L31.8477 8.82511L32.0596 8.79413L32.1584 8.87696L33.084 8.54816L33.333 8.57466L33.3594 8.71957L33.6717 8.69505L33.6676 8.80514L33.8553 8.63772L33.9226 8.72891L33.8086 8.87679L34.0901 8.81869L34.279 8.9536L34.794 8.77538L34.9045 8.82205L34.9602 8.57193L35.0778 8.72574L35.5543 8.49042L36.1357 8.56299L36.6137 8.49611L36.6084 8.76593L36.7442 8.78071L36.5259 9.03223L36.3161 9.0713L36.7259 9.20709L37.2475 9.05978L37.6166 9.0796L37.5695 8.85674L37.7822 8.78382L37.9532 8.55351L38.8746 8.4612L38.977 8.60252L38.8849 8.73712L38.9454 8.77933L38.9057 9.3267L38.6204 9.7349L38.432 9.69982L38.1792 10.0443L38.1855 10.4244L38.4192 10.9497L38.36 11.1279L38.5126 11.3335L37.3468 11.1714L36.1704 10.672L36.2895 11.4619L36.0228 12.0871L36.0536 12.5068L32.0805 13.7418L32.267 14.6448L31.8931 14.9557L29.109 15.4685L27.6345 16.1829L27.034 16.187L26.2043 16.5723L25.9664 16.7069L25.3577 17.4228L25.8899 18.4357L25.8467 18.5841L24.8454 18.7528L23.4578 19.9121L22.2884 20.2712L22.3157 19.8318L22.05 19.4072L22.0306 18.7562L21.6252 18.637L21.5195 18.4458L21.6399 18.0695L21.8382 17.9051L21.7811 17.6444L20.4356 17.2198L20.1818 17.2201L20.0766 17.3657L19.6923 17.451L19.3712 17.3602L19.3063 17.033L19.0866 16.872L19.1847 16.6193L18.8089 16.4922L18.5863 15.7775L19.1749 15.2173L20.5217 14.4816L20.989 14.0043L21.7084 13.52L21.9343 13.0815L21.9831 12.9761L22.371 12.4439L22.7548 12.1485L22.7753 11.7735L21.8568 11.1346L20.964 10.7568L19.1129 10.2128L16.9573 9.89274L17.2275 9.45902L17.3424 9.72216L17.6854 9.60606L17.7967 9.61079L17.8119 9.75005L18.4939 9.66764L18.8282 9.80849L19.0084 9.70091L19.1807 9.89061L19.4351 9.97508L19.8642 9.76883L20.6578 10.189L22.0341 10.2701L22.6627 9.98579L22.6556 10.2486L22.8236 10.0522L22.964 10.1669L23.2518 10.1323L23.4263 10.3304L23.7331 10.1149L23.5309 9.97488L23.65 9.92678L24.9008 10.3273L25.1014 10.3339L25.2083 10.3221L25.3908 10.223L25.9045 10.373L25.8419 10.5072L26.1575 10.5326L26.23 10.7235L26.0994 10.6912L25.9848 10.6291L25.4839 10.6529L25.2815 11.0092L26.0767 11.1011L26.2569 11.2383L25.9102 11.2212L25.6057 11.4451L25.2942 11.4352L25.2815 11.6322L26.5287 11.731L27.0769 11.4767L27.2848 11.4306L27.7296 11.1951L27.565 11.197L27.6286 11.1041L27.801 11.0494L27.8827 11.1871L28.3561 11.2301L28.5348 11.0737L28.4846 10.7592L28.6992 10.6932L29.0816 10.7261L29.0975 10.6235L29.4053 10.582L29.8901 10.1257L29.9138 10.0525L30.1558 10.0899L30.4706 9.90487L30.3048 9.48677L30.4351 9.19127L30.2008 8.96725L30.6847 8.79726L30.6335 8.55895L30.3169 8.56691L30.2424 8.74606L30.0121 8.76853L30.1018 8.63297L29.5618 8.59115L29.9589 8.88103L29.8175 8.97833L29.19 8.60664L28.4537 8.36495L28.3453 8.2087L27.3035 7.97202L27.2181 8.01985L27.5313 8.16353L27.2175 8.14515L26.1498 7.85553L26.1862 7.72662L24.3769 7.45764L24.3753 7.45962Z" fill="#979797" stroke="white" stroke-width="0.5" stroke-miterlimit="10"/>
<path d="M18.0306 33.6105L18.0603 33.4326L17.7955 33.4285L17.7394 32.5117L17.8082 31.8138L17.904 31.8049L17.925 32.0095L18.0591 31.5206L17.9393 31.4016L17.9691 31.7215L17.8436 31.7457L17.7995 31.2462L17.5614 30.8905L16.364 30.0748L16.6977 30.1623L16.7533 29.8374L16.5387 29.9777L16.3322 29.949L16.3871 29.7408L16.2612 29.8084L15.834 29.695L15.9501 29.5552L15.8744 29.432L15.5086 29.4621L14.39 28.8104L12.4887 28.2395L11.3955 28.0165L9.61091 27.8858L7.71102 28.0702L7.65131 27.7999L7.39048 27.8108L7.72796 27.386L9.05317 26.8588L10.7584 26.6079L13.7767 26.6143L14.8917 26.9567L15.6277 27.2402L16.0274 27.5456L16.7626 27.7458L16.3997 27.8672L15.7141 27.6463L14.5571 27.6429L14.8376 27.9963L15.4471 28.2626L16.0132 28.4478L16.9681 28.5643L16.9807 28.7369L16.0732 28.9267L16.0281 29.0894L16.213 29.0821L15.8937 29.2502L15.9723 29.4647L16.4255 29.3863L16.3835 29.7253L16.8201 29.2144L17.0803 29.5732L17.7729 29.4404L18.5424 28.5225L19.1965 28.1641L19.2216 27.5537L19.6652 27.2767L19.9314 26.8708L20.4286 26.5883L20.8959 26.481L20.7931 26.383L21.1307 25.8315L21.2368 25.274L21.5677 24.8167L21.6149 24.3347L21.4782 24.0265L21.6584 23.7938L21.457 23.6118L21.4942 23.1741L21.3858 23.0179L21.5986 22.7005L21.6387 22.3545L21.9477 22.0298L22.0558 21.7327L21.962 20.6737L22.1067 20.677L22.2844 20.2722L23.4537 19.913L24.8414 18.7537L25.4378 20.4474L26.4854 21.1643L27.0314 21.9259L26.7922 22.4707L27.2548 23.6304L26.3907 24.1306L26.0665 25.7043L26.6295 25.9069L26.71 26.054L26.2909 26.4095L26.4476 26.8599L26.3711 27.0235L29.1191 26.2549L32.4183 25.1552L33.5719 25.2045L34.1173 25.4369L34.511 26.1721L35.2797 26.9137L35.4921 27.4253L35.2331 27.7309L34.4657 28.2102L32.5439 29.0015L31.8774 29.491L29.3106 29.9404L28.7708 31.2568L28.6112 32.0354L27.7894 31.955L27.725 32.7501L28.7028 32.953L29.1493 33.331L29.5817 33.4564L29.7336 33.622L29.9434 33.6124L30.1813 33.8638L30.6229 34.0451L26.3513 36.1122L25.2914 36.1873L25.0724 36.3244L23.605 36.1214L24.2786 37.0371L24.9547 40.33L24.354 40.4235L24.2539 40.3575L23.4403 40.3587L22.9482 40.1416L22.583 40.3069L22.0299 40.1418L21.7003 40.3083L21.2765 40.3565L20.9203 40.2289L20.5007 40.4417L19.9624 40.34L19.7508 40.2469L19.5886 39.731L19.9119 38.9998L20.2716 38.5691L20.3104 38.1728L19.9995 37.6679L20.1638 36.8774L19.8323 36.0423L20.0837 35.4553L19.1457 34.6976L18.6081 34.0423L17.9698 33.7494L18.17 33.7546L18.3651 33.5778L18.0333 33.609L18.0306 33.6105Z" fill="#979797" stroke="white" stroke-width="0.5" stroke-miterlimit="10"/>
<path d="M32.4205 25.1537L34.06 23.7501L35.3585 22.2311L34.6235 20.5863L33.8124 20.8045L33.6169 20.1199L36.8303 19.1937L37.7116 19.6847L37.9403 20.1401L38.576 19.9865L39.4494 18.8084L40.3495 18.4655L40.1187 18.069L40.9189 17.8463L41.6411 17.7292L42.1361 17.8381L42.2126 17.682L42.5834 17.6865L43.0815 18.7277L43.6991 18.6683L44.1616 18.2922L44.572 18.4459L44.555 19.1691L44.2722 19.5259L44.3591 19.7949L44.6639 19.7424L45.7079 18.8379L48.5879 19.3253L48.3481 21.6028L48.2197 21.6608L48.115 22.6233L47.1678 23.092L46.6396 23.2143L45.9791 23.6681L45.2017 24.4153L44.4295 24.7215L42.5417 25.1728L42.5928 25.8181L42.8976 25.8849L43.9595 25.7824L44.4966 26.2946L45.1086 26.4961L45.2091 26.8598L44.6412 27.328L44.3622 27.7971L44.2736 28.25L43.696 28.6522L43.4216 29.3972L42.8813 29.703L42.8677 30.2001L42.2452 30.7363L42.1126 31.0233L41.6005 31.3692L41.3179 31.8676L40.8408 32.0047L39.2441 31.6274L38.5338 31.5874L37.8059 32.3648L37.6673 32.3764L37.6723 32.736L37.2706 32.9184L37.0494 33.7449L36.4599 34.2723L36.4614 34.5895L36.6714 34.8098L36.553 34.9781L36.7059 35.3552L36.3871 35.7034L35.744 35.9408L35.4188 36.835L34.4911 36.9408L33.4913 36.9075L33.1973 36.3624L32.9861 36.3156L33.0204 36.1338L32.8919 36.1678L32.6512 35.9199L32.5944 35.6233L31.994 35.5691L31.6481 35.7174L31.2094 35.4492L31.0801 35.4803L31.0857 35.227L30.7696 34.8648L30.8527 34.5028L30.6297 34.0474L30.1879 33.865L29.9503 33.6151L29.7401 33.6232L29.5883 33.4576L29.1558 33.3322L28.7079 32.9546L27.7297 32.7503L27.7941 31.9551L28.6159 32.0356L28.7758 31.2584L29.3157 29.942L31.8801 29.4917L32.547 29.0032L34.4684 28.2105L35.2358 27.7312L35.4948 27.4256L35.2823 26.914L34.5137 26.1724L34.12 25.4372L33.5745 25.2048L32.4207 25.1544L32.4205 25.1537Z" fill="#979797" stroke="white" stroke-width="0.5" stroke-miterlimit="10"/>
<path d="M39.1882 8.27585L41.1091 8.87577L41.1282 9.03011L40.9852 9.06804L41.0206 9.32706L41.771 9.53945L41.9435 9.73812L42.9156 9.74887L41.467 9.22488L41.2665 8.96629L44.3944 10.181L46.4971 10.7166L47.3229 11.094L47.2809 11.1886L47.5195 11.1761L47.8914 11.6663L48.9944 12.4669L50.3024 14.203L51.2444 15.0191L51.0146 15.147L50.824 15.0959L50.6985 14.7848L50.201 14.8584L50.4809 14.8767L50.5086 15.1886L50.9227 15.4232L50.923 15.5066L50.6601 15.5094L50.6526 15.814L50.9259 15.725L51.235 15.8532L51.0405 15.662L51.3333 15.1058L53.7603 17.0742L55.2893 18.1464L54.8139 18.3484L53.6483 17.6077L52.5556 17.1417L52.199 17.1693L52.0995 17.3716L52.2237 17.5071L51.9006 17.7864L51.7578 17.79L51.7821 18.0445L52.2868 18.2878L52.9604 18.3359L53.0677 18.4507L53.1839 18.429L53.1874 18.2344L53.2861 18.274L53.398 18.1534L53.3633 17.9776L53.4968 17.984L53.7045 18.1898L53.4713 18.6378L53.8175 18.4535L53.9407 18.4208L53.927 18.4945L53.6664 18.7647L53.3185 18.8093L52.9438 19.1173L52.5632 19.1796L52.5758 19.3896L52.1205 19.6519L51.9557 19.9566L50.6491 20.2505L50.472 20.4734L48.6004 21.2305L48.3456 21.605L48.5835 19.3281L45.7055 18.8402L44.6595 19.7452L44.3547 19.7977L44.2678 19.5287L44.5506 19.1719L44.5676 18.4487L44.1572 18.295L43.6947 18.671L43.0771 18.7304L42.5789 17.6892L42.2062 17.6853L42.1297 17.8414L41.6347 17.7325L40.9128 17.8507L40.1123 18.0719L40.342 18.4703L39.4419 18.8132L38.5685 19.9913L37.9328 20.1448L37.7041 19.6895L36.8228 19.1985L33.6113 20.1242L33.8052 20.8107L34.6161 20.5915L35.3531 22.2357L34.055 23.7562L32.4154 25.1598L29.1162 26.2595L26.3682 27.028L26.4447 26.8645L26.288 26.4141L26.7071 26.0585L26.6266 25.9114L26.0636 25.7088L26.3878 24.1351L27.2519 23.6349L26.7893 22.4753L27.0285 21.9305L26.4825 21.1688L25.4348 20.452L24.8385 18.7583L25.8398 18.5896L25.883 18.4412L25.3508 17.4283L25.9594 16.7124L26.1973 16.5778L27.027 16.1925L27.6276 16.1884L29.102 15.474L31.8861 14.9612L32.26 14.6503L32.0736 13.7473L36.0466 12.5123L36.0158 12.0926L36.2825 11.4674L36.1635 10.6775L37.3398 11.1769L38.5056 11.339L38.353 11.1334L38.4122 10.9552L38.1785 10.4299L38.1722 10.0498L38.4251 9.70532L38.6145 9.73854L38.8998 9.33034L38.9395 8.78297L38.6456 8.69834L38.879 8.74076L38.9711 8.60617L38.8687 8.46485L39.1882 8.27585Z" fill="#979797" stroke="white" stroke-width="0.5" stroke-miterlimit="10"/>
<path d="M92.1216 47.2004L92.2332 47.2885L92.4389 47.234L92.6239 47.562L92.3876 48.0434L92.1986 48.1604L91.8761 47.6941L91.8818 47.3824L92.1204 47.1999L92.1216 47.2004ZM91.926 46.9228L92.1997 46.9545L92.0779 47.1628L91.786 47.3071L91.5534 47.1345L91.691 47.1563L91.9259 46.9224L91.926 46.9228ZM91.5042 45.7838L92.1092 46.0335L92.188 46.2051L94.556 47.787L95.9577 49.0464L97.5634 51.4475L97.5888 51.7509L97.7329 51.8796L97.3971 52.1028L97.4796 52.667L97.0047 52.7004L96.4614 52.476L96.5829 52.1844L96.8206 52.4134L96.9923 52.3931L96.9258 52.0171L96.7121 52.0411L96.7161 52.1818L96.5113 52.0767L96.2862 52.2363L96.232 52.1432L96.2476 51.9124L96.6101 51.5821L96.4761 51.2839L96.1992 51.107L96.1505 50.7979L95.9231 50.6449L96.0072 50.2125L95.8587 49.985L96.0249 49.7815L95.7145 49.813L95.4123 49.668L94.3849 48.4928L93.9021 48.7042L93.2916 48.3142L93.4257 47.9449L92.4001 46.9018L92.3731 46.3395L92.2458 46.3567L91.5042 45.7838ZM73.618 35.5615L74.2009 35.052L74.7769 34.9394L75.0827 34.7065L75.2545 34.7534L75.23 35.0016L75.4322 35.0224L75.5899 34.9121L75.9863 34.9231L76.0922 34.7742L76.3967 34.7813L76.3635 34.6484L76.5643 34.5011L76.7537 34.6595L76.7099 34.7978L76.9792 34.7756L77.0217 34.3424L77.5468 35.2482L78.1309 35.7463L78.251 36.1171L78.7588 36.4521L78.7929 36.8708L79.2362 37.4228L79.1832 37.638L79.4933 37.9403L79.4226 38.1259L79.5699 38.5564L79.3749 38.7333L79.1056 38.7122L78.2131 37.9187L77.7781 37.3976L77.4552 36.4694L77.2666 36.3434L77.1293 36.5306L76.8589 36.468L76.7736 36.8515L76.8846 36.8548L76.8938 36.7272L77.0157 36.8543L76.8481 37.2596L76.9653 37.2868L77.0225 37.6652L77.2345 37.7598L77.2554 37.9211L77.5688 37.938L77.7285 38.0881L78.0222 37.9937L78.3538 38.7021L78.5477 38.6833L78.8576 38.8948L79.3973 38.81L79.5589 38.9596L79.6517 38.3147L79.4827 38.1745L79.59 38.0371L79.6369 38.2588L79.7321 38.1576L79.2833 37.5477L79.7337 37.9561L80.2337 38.0994L80.2419 38.5908L80.8981 39.5307L82.0121 40.4921L82.8764 40.8073L83.2115 40.7437L83.6923 40.9772L84.1955 40.7603L84.2366 40.5826L84.2936 40.7524L84.4478 40.7116L84.4711 40.5546L84.2673 40.491L84.5995 40.5789L84.6216 40.7072L84.2908 40.9948L84.2519 41.4255L84.8245 41.9684L84.4119 42.3623L83.8126 42.5121L83.6245 42.9229L83.8934 43.1869L83.6739 43.4793L83.8314 43.6209L83.9856 43.5801L84.1011 44.0607L84.4453 44.3213L84.1923 44.4049L84.3591 44.5366L84.2392 44.6267L84.4747 44.6477L84.7152 44.517L85.2494 45.0791L85.5767 45.1935L85.3229 45.319L85.1147 45.1566L84.9597 45.2394L85.032 45.3871L84.2674 45.4481L84.3875 45.7756L84.2335 46.025L84.2648 46.2253L84.5511 46.1404L84.787 45.8275L85.0693 45.7275L84.958 45.5976L85.7037 45.7101L85.681 45.0466L85.2443 44.8522L85.3125 44.6492L85.1109 44.7191L84.8843 44.4872L84.4812 44.3764L84.353 44.1002L84.141 44.0057L83.9962 43.5415L83.7447 43.4231L83.9123 43.3877L83.9616 43.2405L83.7202 42.8274L84.0384 42.6179L83.9177 42.8676L84.1957 42.5436L84.6005 42.4528L84.9394 42.1961L84.9535 41.9165L85.0904 41.855L85.2849 41.9211L85.3902 42.236L85.8241 42.13L86.214 42.2278L85.7159 42.4267L85.6276 42.9689L86.0496 43.8111L86.7562 44.4436L87.5819 44.7777L88.0523 44.7274L88.28 44.4659L89.3382 45.4244L90.4587 45.7878L91.1611 45.8193L91.3148 46.0288L91.5434 46.0608L92.2311 46.4972L92.2029 46.8057L92.0763 46.9062L91.6395 46.8386L91.4251 46.6526L91.1284 46.6985L91.1831 46.86L91.4073 46.9182L91.3434 47.2197L91.7232 47.3619L91.6611 47.6704L91.2521 47.7879L90.6954 47.0156L90.7285 46.6802L90.42 46.6443L90.0658 46.4205L89.6801 46.4559L89.6002 46.5695L88.6116 46.2456L88.0264 46.2413L87.9816 46.3622L87.8029 46.393L87.8775 46.6743L87.627 46.7242L87.7168 46.8181L87.5133 46.8811L87.6753 46.9948L87.4193 47.2744L87.5116 47.7852L87.9134 47.7204L88.0268 47.8155L88.7385 47.8445L88.7205 47.7316L88.9052 47.5901L88.8251 47.1686L88.9752 47.1123L89.5987 47.3063L90.2631 47.2392L90.4725 47.1168L90.4462 47.3072L90.3096 47.3344L90.1352 47.5892L90.3405 47.5765L90.4189 47.7899L91.0177 47.8905L91.1293 48.2293L91.3435 48.08L91.8122 48.0227L92.4044 48.5513L92.253 48.7674L92.1173 48.7526L92.1389 49.124L92.3915 49.0822L92.3451 49.4046L92.8806 49.807L93.0482 49.7716L92.735 49.5028L92.6442 49.2423L92.7864 48.9035L93.0933 49.0233L93.2004 48.6773L93.3832 48.5363L93.8508 49.098L94.2299 49.0302L94.9905 49.6141L94.8225 49.8928L95.0711 49.836L95.7029 49.9787L95.4282 50.4777L95.1396 50.6719L94.9472 50.6139L94.8588 50.6956L95.3528 50.8984L95.4079 50.6913L95.6524 50.5757L95.6875 50.7081L95.9157 50.7818L95.9833 51.1992L95.8159 51.318L95.4687 51.3356L95.0075 51.1312L94.8106 51.3011L95.1083 51.674L95.2356 51.6568L95.4499 51.3823L95.6586 51.4195L95.8832 51.3092L96.1871 51.5805L96.5615 51.5395L96.1518 51.9075L96.1569 52.2163L95.3775 52.2217L95.6245 52.3231L95.7554 52.5643L96.3757 52.701L96.3656 52.8706L96.0597 52.919L96.1258 53.1683L95.8882 53.5997L95.8364 53.6941L94.9319 53.9382L93.9229 55.2356L93.3687 55.5927L93.3239 55.9875L93.0941 56.1216L92.3949 54.4257L92.4323 54.0773L92.1379 53.9302L92.0653 53.6035L91.7458 53.3556L91.566 52.9888L91.6357 52.7035L90.6341 53.4803L86.8366 54.457L85.9569 54.5067L86.0892 54.2792L84.1864 54.1472L83.2964 53.5645L83.2191 53.2571L83.4215 52.6638L83.2964 52.466L83.4453 52.027L83.1671 51.6745L83.2071 51.4179L80.7935 51.615L80.1381 51.4711L79.057 50.7005L78.2992 50.3854L78.2159 50.093L78.0251 50.0034L75.7521 50.5686L75.4641 50.7941L75.3113 50.6779L74.9135 50.6909L74.6902 50.4714L74.6132 50.1282L74.0728 49.6543L74.0754 49.2273L73.6777 48.4771L73.8168 47.8365L73.6382 47.3486L73.4592 47.2217L73.4323 46.9576L73.6378 46.5245L73.4001 45.6496L73.8754 45.0242L74.21 44.8253L74.6749 44.7989L75.1402 44.3804L75.4712 44.3092L75.8992 44.4551L76.1952 44.2888L76.6641 44.3228L77.0857 44.1409L76.9414 43.5888L75.1534 41.8804L73.8716 35.8796L73.6178 35.5608L73.618 35.5615Z" fill="#979797" stroke="white" stroke-width="0.5" stroke-miterlimit="10"/>
<path d="M74.9046 50.6977L75.3024 50.6848L75.4552 50.8009L75.7432 50.5754L78.0162 50.0103L78.2071 50.0998L78.2903 50.3922L79.0482 50.7073L80.1292 51.4779L80.7846 51.6218L83.1982 51.4248L83.1582 51.6814L83.4365 52.0339L83.2876 52.4728L83.4127 52.6707L83.2102 53.264L83.2875 53.5713L84.1776 54.154L86.0804 54.2861L85.9481 54.5136L86.8278 54.4638L90.6253 53.4871L91.6269 52.7103L91.5571 52.9957L91.7369 53.3625L92.0565 53.6103L92.129 53.937L92.4234 54.0841L92.386 54.4325L93.0853 56.1285L93.315 55.9944L93.3598 55.5995L93.9141 55.2425L94.923 53.945L95.8275 53.7009L95.8793 53.6065L96.2495 53.6753L96.348 53.424L96.7163 53.4858L96.8577 53.3141L96.8345 53.1443L96.6041 53.1054L96.7175 52.7833L97.011 53.0231L97.1444 53.3637L97.0432 53.6499L97.235 53.9583L97.5251 53.9322L97.648 54.2334L97.8985 54.1835L97.9248 53.9931L97.6773 54.017L97.5103 53.802L97.7722 53.8325L97.6865 53.6718L97.5522 53.7074L97.6562 53.2697L97.5697 53.1509L97.7466 53.1131L97.9367 53.2879L97.9871 53.1076L98.1443 53.1584L97.8197 52.684L97.852 52.5161L97.9775 52.4919L98.126 52.7193L98.2596 52.7257L98.8007 53.602L99.544 54.0402L100.237 55.1191L100.849 55.768L101.476 57.2494L101.658 58.5309L101.677 58.727L101.709 59.3448L101.948 59.7494L102 60.1532L101.835 60.2804L101.799 60.1813L101.582 60.2388L101.586 60.5047L101.244 60.6696L100.981 61.0061L100.76 60.8306L100.857 61.1969L100.992 61.4532L101.479 61.7921L101.231 62.0589L101.804 62.2247L101.846 61.8868L101.497 61.7364L101.754 61.5849L101.839 61.3625L101.985 61.5415L102.14 61.4587L102.145 61.1071L102.042 61.1344L101.868 60.7702L101.974 60.5914L101.909 60.3002L102.029 60.2101L102.478 62.5733L103.382 64.1138L103.851 64.5917L103.642 65.5076L103.632 65.886L103.786 66.0537L103.407 68.234L103.483 68.3972L103.661 68.4008L103.547 68.7562L103.763 69.1581L103.572 69.2671L103.326 69.7916L103.46 70.0898L103.742 70.1151L103.81 70.2477L103.535 70.3297L103.414 70.496L103.32 70.9712L103.477 71.3558L103.367 71.8185L103.636 71.956L103.609 72.1464L103.807 72.395L103.448 72.7823L103.148 73.5207L103.284 73.744L103.269 74.2652L103.143 74.2894L102.864 74.6885L102.526 75.5294L102.56 75.8633L102.823 76.0276L102.873 76.2978L102.517 77.318L102.711 77.6002L102.565 77.8805L102.168 78.1692L102.075 78.6859L101.763 79.253L101.84 79.3328L101.698 79.7952L101.336 80.5845L101.145 80.6157L100.483 80.7746L99.9626 80.6576L99.4872 80.2798L98.9766 80.2377L98.5172 80.4413L98.137 80.1351L97.7203 80.0027L97.5932 79.8129L97.371 79.8344L97.1369 79.7071L95.4138 70.1201L95.3737 68.7158L94.5136 68.3712L94.487 67.7969L94.1861 67.7157L94.0445 67.373L93.7733 67.1588L93.8159 66.6732L94.0464 66.3854L93.7156 65.8934L93.0398 66.0367L92.1091 65.9315L91.6044 66.0445L90.7871 66.0183L90.6442 65.916L90.5539 66.0726L90.0548 65.9916L89.802 65.8917L89.5404 65.514L89.4802 64.9754L88.9029 64.7482L89.0672 63.7073L89.3573 63.1624L89.9618 62.5209L90.3435 62.3004L89.4691 61.8568L89.0436 61.883L89.1316 61.5393L88.8802 61.0963L88.5638 60.8818L88.6441 60.7322L88.5348 60.5943L88.2417 60.4304L87.6494 60.4071L86.805 60.0181L87.1446 59.5329L86.4318 58.4829L86.0518 58.1617L86.0127 57.309L85.5357 57.3193L85.3895 57.2121L85.8309 56.363L84.9709 56.4792L84.3376 57.0941L83.9283 57.2636L83.8629 57.4537L83.35 57.6688L83.4811 57.956L83.405 58.1506L82.8456 58.5625L82.314 58.6275L82.3618 58.9994L83.0316 59.6267L82.6826 60.0903L82.3451 60.2113L82.3087 60.3776L82.5194 60.587L81.7438 61.0295L81.0051 61.2686L80.8473 61.2077L80.9333 61.926L81.295 62.2446L81.2289 62.9001L81.4866 63.2789L80.8671 63.6131L80.2651 64.2796L80.2459 64.0446L79.8546 63.941L79.8736 63.7525L79.4396 63.4055L79.278 63.2858L79.3709 62.99L78.9659 62.6038L78.1478 62.2689L78.0987 62.0016L77.7211 61.9049L77.521 62.1741L77.1517 62.3243L76.8399 61.9567L76.645 61.9635L76.2855 61.4983L75.8424 61.3249L75.8112 61.1037L76.0487 60.9676L75.9718 60.7302L75.2032 59.6697L74.9352 59.5633L75.269 59.0052L75.1377 58.8507L75.3449 58.6317L75.1144 57.8072L75.2897 57.2971L74.9469 56.2116L74.6336 56.0246L74.1603 55.8565L73.2918 56.215L71.6118 57.4132L70.4914 58.6973L70.0441 58.7234L69.7803 58.9366L69.8632 58.9965L69.7725 59.0697L69.2654 59.2266L68.5685 58.4305L68.2568 58.3907L67.9377 58.1443L67.5351 56.9585L67.2676 56.8326L66.3937 56.8006L66.0083 56.4883L66.0117 55.9372L66.357 55.297L66.1661 54.8588L65.8881 54.5972L66.0033 54.2683L65.7015 53.6564L66.5277 53.5401L66.9823 53.2751L67.9489 53.1457L68.5802 52.619L69.5701 52.525L70.6949 53.2883L71.8144 53.4029L72.041 53.2413L73.8821 53.311L74.5832 53.5529L74.789 53.2973L74.7176 52.7616L75.2798 52.3816L75.1149 52.1825L75.2026 51.9416L75.0307 51.4341L74.7557 51.2504L74.9042 50.6982L74.9046 50.6977Z" fill="#979797" stroke="white" stroke-width="0.5" stroke-miterlimit="10"/>
<path d="M53.9287 18.4911L53.5726 18.9358L53.9661 19.0924L54.1859 19.009L54.1011 19.2668L53.476 19.2314L53.2891 19.3569L53.5003 19.611L53.4621 19.8821L53.656 19.7382L53.8796 20.1666L54.1517 20.0276L54.2244 20.1767L54.3821 19.9413L54.7498 20.163L55.018 20.0919L55.0861 19.7712L54.9512 19.7145L54.7643 19.84L54.7666 19.7292L55.1786 19.3622L55.3066 19.4298L55.6093 19.2736L55.4577 18.9619L55.1282 18.8391L55.4503 18.2661L56.8924 19.218L57.1602 19.3155L57.3027 19.1852L57.4828 19.3225L57.7227 19.8493L57.4424 20.1727L57.7506 20.0076L57.9166 20.056L57.8106 19.6563L58.6295 20.3799L59.7892 20.8537L60.1626 20.8815L60.3151 21.0497L60.4309 20.8265L60.1686 20.7945L60.5175 20.4501L60.4756 20.6624L60.6913 20.6886L60.7887 20.5959L60.7739 20.7848L61.0609 20.9099L61.1938 21.2859L62.4991 22.1817L62.4057 22.2898L62.5455 22.3197L62.6344 22.1946L63.3783 22.6354L63.6465 22.6895L63.7553 22.6024L64.3421 23.1104L65.0163 23.3253L64.9777 23.4697L64.7661 23.584L64.6871 23.9911L65.0702 23.4035L66.5448 24.6479L67.4981 25.0915L67.4942 25.5368L67.7364 25.7828L67.5191 26.0832L67.6196 26.4175L68.1343 26.9863L68.4254 27.1268L68.6238 27.125L68.7796 26.8826L68.7955 27.1051L68.6178 27.1849L68.5793 27.3293L68.992 27.5135L69.1183 27.9078L68.8412 28.0647L68.6403 28.3447L68.4368 28.4077L68.3883 28.2698L68.5416 28.0174L68.2959 28.2108L68.1743 28.1671L68.5189 27.5972L68.2076 27.3353L68.0305 27.2898L67.5143 27.7533L67.5521 27.5256L67.8888 27.1353L67.7734 27.1151L67.3152 27.7151L67.2776 27.4909L67.0862 27.4818L67.1946 27.6381L66.8945 27.7086L67.1364 27.7535L66.9513 28.0127L67.0052 28.2161L67.485 28.0306L67.5049 28.1505L67.1271 28.3431L67.1745 28.4396L67.3632 28.3644L67.4908 28.4305L67.3684 28.5464L67.6366 28.6005L67.4838 28.6918L67.5396 28.8202L67.6953 28.8297L67.8599 28.8278L67.8442 29.0587L67.9755 29.0566L68.1115 29.2799L67.839 29.3269L67.6152 29.5205L67.3747 29.5259L67.2656 29.4041L67.0537 29.4351L67.0462 28.9093L66.8525 28.8013L66.7071 28.8307L66.7829 28.9539L66.6814 29.1567L66.1811 28.8867L65.6432 28.8534L65.5144 29.1977L65.5928 29.2859L65.1586 29.9705L64.7405 30.1813L64.9152 30.4703L65.4782 30.5986L65.6891 30.3994L65.7951 29.9687L66.4818 29.569L67.3137 29.5913L67.5598 30.1047L67.9481 30.4044L67.8548 30.6302L67.9025 30.6845L68.0725 30.7484L68.1392 30.7473L68.075 30.5049L68.8154 30.5605L69.0933 30.4885L69.1074 30.4163L69.9656 30.2053L70.055 30.1725L70.8616 29.8918L71.076 29.2478L70.6354 28.6683L71.3945 28.4163L71.7446 28.1567L71.8332 27.823L72.0388 27.7685L72.4083 27.9972L73.4443 28.2921L73.5133 28.6348L73.938 29.1169L75.2244 31.224L75.5685 31.6098L75.9151 31.7521L75.8126 31.8627L75.581 31.7391L75.3676 31.8464L74.8843 31.396L75.1306 31.6574L75.0814 31.8046L75.3432 31.9619L75.3239 32.1339L75.4498 31.9411L75.7299 31.8326L75.9282 32.618L77.0333 34.339L76.9908 34.7722L76.7216 34.7944L76.7654 34.656L76.576 34.4976L76.3752 34.6449L76.4083 34.7778L76.1038 34.7708L75.9979 34.9197L75.6015 34.9087L75.4439 35.0189L75.2416 34.9982L75.2661 34.75L75.0943 34.703L74.7885 34.936L74.2126 35.0485L73.6297 35.5581L72.7569 35.536L72.5368 35.7376L72.5417 35.9346L72.315 36.0663L72.3301 36.2485L72.0798 36.3208L72.2649 36.3669L72.2476 36.464L71.8853 36.6407L71.8538 36.8624L71.6216 36.8913L71.7826 37.3362L71.5753 37.7997L71.3879 37.9151L71.6966 38.2926L71.4786 38.3669L71.4255 38.5152L71.4541 39.0756L71.3481 39.0321L70.9893 39.2004L70.631 39.4878L70.0584 39.5679L70.1516 39.2732L70.5116 39.0511L70.6024 38.5709L70.2383 38.5332L70.0297 38.1906L70.0646 37.6252L69.9156 37.3234L69.6966 37.2473L69.2633 37.483L68.6782 37.3964L68.4408 37.4802L67.2512 37.0052L66.6708 37.0933L66.0399 37.4723L64.8875 37.3082L63.8609 37.5595L63.3003 37.507L62.5996 37.6896L61.9669 38.0482L61.5871 38.1371L60.9712 37.1121L60.2277 36.9707L59.8534 37.0939L59.2912 36.6494L58.9113 36.6694L58.7196 36.9706L58.7484 36.3368L58.5623 35.9091L58.6588 35.3974L58.8993 35.0967L59.052 33.7964L59.2808 33.2946L59.5938 33.0223L59.4953 32.7918L59.9162 32.6952L60.1618 32.4274L59.9153 32.1944L59.5662 32.272L59.0571 32.392L58.9619 32.0252L58.3007 31.9336L57.8478 30.7147L56.6054 30.0483L56.4076 29.4879L55.4701 29.2295L55.5232 28.956L55.2605 28.8112L55.2692 28.5538L55.3884 28.0244L55.816 27.5832L55.7483 27.3728L55.6206 27.1575L54.6234 26.4155L54.4343 25.8351L54.0976 25.8185L53.9293 25.6887L53.8388 25.2357L53.8213 24.635L54.275 23.6753L54.5887 23.3744L54.552 22.9831L54.4172 23.0307L53.6002 22.612L53.3711 22.3118L52.6903 22.1093L51.9888 22.1477L50.2526 21.755L49.1951 21.8743L48.135 22.6221L48.2392 21.6582L48.3694 21.6012L48.6242 21.2267L50.4959 20.4696L50.673 20.2468L51.9795 19.9528L52.1443 19.6481L52.5996 19.3858L52.587 19.1758L52.9677 19.1135L53.3423 18.8055L53.6903 18.7609L53.9297 18.4932L53.9287 18.4911Z" fill="#979797" stroke="white" stroke-width="0.5" stroke-miterlimit="10"/>
<path d="M29.3269 49.0027L30.2946 49.2634L31.3268 49.1523L31.9574 49.3205L32.5451 49.1855L32.853 49.4499L33.4539 49.2237L33.7704 49.4307L34.5162 49.2853L34.801 49.359L35.194 49.2847L35.705 49.446L35.9761 49.6812L36.9322 49.3128L37.3464 49.3105L37.5603 49.1971L37.9445 49.2519L38.6482 49.7407L39.4348 49.8451L40.3079 50.2757L40.6388 50.1805L41.196 50.3028L41.2437 50.1634L41.5927 49.9741L42.1808 50.1519L42.3932 50.8651L42.325 51.2602L42.7658 51.646L42.7902 51.9241L43.093 52.385L42.8353 52.7992L43.3073 52.7548L43.9285 52.3682L44.4365 52.5047L44.7599 53.3387L45.6425 54.2048L45.6197 54.8745L45.4484 55.1627L45.8531 55.2656L45.9379 55.6068L46.1889 55.798L46.8563 55.8463L46.7342 56.0829L46.9813 56.7778L47.3136 56.97L47.8469 56.8612L48.014 57.1881L48.8189 57.6726L49.0108 58.4789L49.4583 58.4378L49.6664 59.119L49.9166 59.403L49.9328 59.5837L49.709 59.7339L49.9927 60.2326L50.2747 60.4054L50.659 60.4019L50.8101 60.7271L51.2456 60.9383L51.0662 61.3527L51.4074 61.8526L51.0224 62.0472L50.7758 62.7773L50.9162 62.9428L50.8688 63.1206L51.0809 63.1195L51.4717 63.4288L51.4497 63.6865L51.6813 63.5968L51.6928 63.7146L51.8852 63.7726L51.9712 64.4161L52.1939 64.618L51.989 64.6617L51.8432 64.942L51.9861 65.2517L51.6828 65.3903L51.643 65.5516L51.1939 65.6081L51.1678 65.7252L51.4864 65.8226L51.5091 66.1235L51.827 66.2243L51.9391 66.424L51.7777 66.5652L51.3634 66.5081L51.2595 66.6506L50.9736 66.6473L50.9709 66.8448L50.5005 66.962L50.7264 67.5909L50.3417 67.7944L49.2427 67.4536L48.9564 67.5445L48.7672 67.4085L48.5075 67.5414L48.5475 67.7217L48.8557 67.7561L49.0056 67.9281L48.8896 68.4402L48.6302 68.5897L48.475 69.0421L48.8522 69.2491L48.6454 69.3071L48.3276 69.1989L48.0427 69.407L47.7159 69.3236L47.4216 69.4823L47.2136 69.4851L47.1969 69.1987L46.864 69.026L46.8376 68.8677L46.6381 68.7907L46.3547 68.8493L46.0195 68.6756L44.7021 69.3735L44.4126 69.3936L44.3575 69.505L44.6836 69.7031L44.9179 70.0464L44.6031 70.4609L44.8473 70.6929L44.6649 71.3033L44.0681 71.2765L43.85 71.3878L43.7579 71.6122L42.7231 72.0699L42.3242 72.1158L41.9914 72.3292L40.3244 73.8817L40.0341 74.455L39.7061 74.5376L39.4811 74.4528L39.3027 74.567L38.5731 74.0626L37.6169 73.8241L37.4929 73.7125L37.6198 73.4569L36.5916 73.154L35.8606 73.935L35.2356 74.3152L35.1896 74.5568L34.5152 75.1067L34.2755 75.1525L33.8725 74.8032L33.5224 74.7886L33.2717 74.9042L33.1725 74.7455L32.9559 74.7077L33.0379 74.5277L32.6093 74.728L32.2645 74.6434L32.194 74.8455L31.6825 75.2153L31.9247 75.2377L31.4583 75.4581L31.3805 75.7129L31.0294 75.9103L30.644 75.8664L30.6552 75.9752L30.468 76.0249L30.4661 76.143L30.6715 76.2421L30.3903 76.3525L30.3873 76.541L30.2344 76.528L29.5629 74.5295L27.4679 71.0774L27.0769 70.2254L26.422 68.2658L26.5625 67.8618L26.326 67.1613L26.4199 66.9144L26.76 66.6169L26.7608 66.2498L27.1493 66.0843L27.0319 65.9603L26.7777 66.01L26.6759 65.9295L26.9215 65.6692L26.8444 65.3335L27.0048 65.1748L27.3 65.1682L27.4236 65.0119L27.5375 65.1592L27.9527 65.0865L28.0175 64.7218L27.5955 64.5908L27.0721 64.7237L27.5532 64.3726L27.3958 64.1117L27.4648 63.8667L27.6687 63.8858L28.1368 63.611L28.2738 63.2527L28.9245 62.7327L28.9232 62.5496L28.6964 62.5397L28.5389 62.3473L28.7207 61.8012L28.3402 61.3294L28.3291 60.8939L28.8671 60.6006L28.4894 60.2804L28.8559 60.0238L28.9188 59.8536L29.5516 59.519L29.5594 59.1116L29.4383 59.1228L29.5281 58.8605L29.8396 58.7822L29.9226 58.5528L30.3579 58.4658L30.2556 58.0875L30.5191 57.8732L30.2798 57.2447L31.0529 56.8222L31.024 56.9656L31.2803 56.9693L31.2555 56.6524L31.5025 56.4794L31.3679 55.9562L31.5566 55.8377L31.8477 55.8605L32.3463 56.1026L32.7934 55.868L32.9211 55.6897L32.1616 55.1531L32.5587 54.1072L32.2621 53.9516L32.3772 53.5185L32.1025 52.8309L32.1718 52.1344L31.8804 52.0223L31.1389 52.0371L30.5167 51.6266L30.3886 51.1434L29.8716 50.2547L29.4324 49.8375L29.5246 49.3762L29.3276 49.0033L29.3269 49.0027Z" fill="#979797" stroke="white" stroke-width="0.5" stroke-miterlimit="10"/>
<path d="M16.7072 49.9685L17.0138 50.1301L16.9442 50.2827L16.6849 50.2172L16.7072 49.9685ZM16.0803 49.3014L15.7176 49.7719L15.8316 49.9416L15.7565 50.0284L15.991 50.1257L15.8069 50.5515L16.0664 50.3651L15.9613 50.2587L16.1522 50.1916L16.242 50.2854L16.1319 50.6574L15.9831 50.7638L15.9967 50.9778L15.6613 50.9577L15.3923 51.1884L15.529 49.879L15.7407 49.395L16.0816 49.3003L16.0803 49.3014ZM15.9748 47.0781L16.3741 47.2568L16.1635 47.6646L16.0895 48.5056L15.9108 48.6619L15.9588 48.9251L15.7886 49.1135L15.7846 48.7285L16.0035 48.1009L15.8806 47.555L15.9743 47.0783L15.9748 47.0781ZM15.2731 43.2658L15.1778 43.8188L15.4421 44.3183L15.7776 44.3384L15.7334 44.6693L15.0754 43.8046L15.1062 43.3431L15.1954 43.2195L15.2726 43.2659L15.2731 43.2658ZM19.9687 40.3425L20.507 40.4442L20.9267 40.2314L21.2828 40.359L21.7067 40.3108L22.0363 40.1443L22.5893 40.3094L22.9546 40.1441L23.4466 40.3612L24.2603 40.36L24.8752 41.0857L24.678 42.1668L24.2937 42.9575L23.7922 43.2903L23.4242 43.7488L23.5645 43.9218L23.3548 44.0726L23.2036 44.4972L22.6175 44.6675L22.4037 44.8478L22.4628 45.6193L23.4783 46.2148L24.2347 47.578L24.2108 47.8287L24.9336 48.4109L25.2699 49.1314L26.2769 48.9254L26.603 48.5379L27.622 48.7554L28.236 48.512L28.611 48.7554L28.9904 48.7473L29.1767 48.99L29.3251 49.0014L29.522 49.3743L29.4299 49.8356L29.8691 50.2528L30.3856 51.14L30.5141 51.6247L31.1363 52.0352L31.8779 52.0204L32.1692 52.1325L32.0997 52.8279L32.3744 53.5155L32.2592 53.9487L32.5559 54.1042L32.1607 55.1496L32.9187 55.6866L32.7911 55.8649L32.344 56.0995L31.8453 55.8574L31.5547 55.8361L31.366 55.9546L31.5005 56.4778L31.255 56.6503L31.2798 56.9673L31.0231 56.9621L31.0501 56.8192L30.2774 57.2432L30.5166 57.8717L30.2529 58.0849L30.3552 58.4632L29.9195 58.5487L29.8365 58.7781L29.525 58.8564L29.4356 59.1202L29.5563 59.1075L29.5489 59.5164L28.916 59.851L28.8528 60.0197L28.4863 60.2763L28.8639 60.5965L28.326 60.8898L28.3348 61.3244L28.7155 61.7973L28.5334 62.3419L28.6908 62.5343L28.9181 62.5457L28.9213 62.7283L28.2702 63.2468L28.1331 63.6051L27.6651 63.8799L27.4609 63.8596L27.3919 64.1046L27.5493 64.3656L27.0682 64.7166L27.5896 64.5843L28.0116 64.7153L27.9484 65.078L27.5316 65.1527L27.4174 65.0039L27.2938 65.1602L26.999 65.1683L26.8386 65.327L26.9156 65.6627L26.6701 65.923L26.7738 66.003L27.026 65.9538L27.1454 66.0772L26.7546 66.2419L26.7541 66.6104L26.4141 66.9079L26.3201 67.1548L26.5567 67.8552L26.4158 68.2578L27.0707 70.2174L27.4636 71.0689L29.5571 74.523L30.2285 76.5215L29.5932 76.4396L29.5716 76.587L29.2169 76.7259L29.2801 76.9268L29.0104 77.0668L29.0054 76.6702L28.8659 76.8488L28.6268 76.7556L28.5952 76.934L28.2977 77.0514L27.7604 76.9163L27.3295 77.4273L27.0096 77.3035L26.8845 77.4543L26.6364 77.5052L26.4645 77.3913L24.8436 74.3102L23.6661 72.5234L22.591 70.5005L22.0137 68.7379L22.5838 68.3526L22.4104 68.3659L21.7497 65.956L20.4844 63.6304L17.9085 59.6843L15.6965 56.821L15.4374 55.718L15.1271 55.2976L14.8082 53.7244L14.3421 53.2115L14.0587 52.6321L14.2872 52.5893L14.9236 52.127L15.1088 51.8169L15.6074 51.6281L16.4468 50.4334L16.8097 50.3865L16.4993 51.0485L16.815 51.4091L16.8323 51.682L16.5815 51.7737L16.5348 51.6428L16.3044 51.6039L15.7859 52.4286L15.9023 52.6153L16.3432 52.8252L16.1802 53.086L16.3773 53.3691L16.1848 53.6378L16.2233 54.0495L16.0177 54.104L15.897 54.3536L15.9583 54.7475L16.432 55.0737L16.4213 55.7893L16.8136 56.1041L17.4669 56.1577L17.0339 56.557L17.3022 57.0719L17.1122 57.6827L17.6315 58.189L18.587 58.2624L20.3012 58.0004L20.6276 57.8214L20.5894 57.7225L20.8842 57.6696L20.9499 57.2495L20.9014 57.1116L20.7624 57.165L20.7952 56.7462L20.6758 56.5854L20.0567 56.1635L18.8721 55.723L18.6248 55.4575L18.8133 55.5461L19.0361 55.4288L18.9744 55.2783L18.6471 55.2891L18.5655 55.1438L19.0519 55.0732L19.4023 54.5701L19.5002 54.1089L19.4163 53.8375L19.8992 53.5009L19.8491 53.2297L19.6246 53.088L19.7105 52.9145L19.4109 52.7421L19.0777 52.7304L18.9764 52.4306L19.06 52.3758L18.8181 52.2132L19.1307 52.1469L18.8085 51.5541L18.3762 51.3334L17.904 51.25L18.284 51.0658L17.9063 50.9317L17.5356 51.1135L17.446 51.0282L18.2048 50.6928L18.2541 49.6332L18.4507 49.1352L18.6513 49.0088L18.6259 48.8306L18.8911 48.8362L18.5942 48.5465L18.6369 48.2924L18.4701 48.1607L18.5737 48.0915L18.3581 48.0652L18.5762 47.7228L18.4539 47.3868L18.6878 47.1489L18.0229 45.138L18.059 44.6515L18.6078 44.1034L18.3693 43.664L18.4413 43.393L18.2755 42.8497L18.2137 41.6747L18.327 41.5538L18.4342 41.6253L18.7609 41.5297L19.4473 41.0034L19.7832 40.8978L19.8162 40.4447L19.9657 40.3409L19.9687 40.3425Z" fill="#979797" stroke="white" stroke-width="0.5" stroke-miterlimit="10"/>
<path d="M48.1156 22.623L49.1757 21.8752L50.2332 21.7559L51.9716 22.1491L52.6732 22.1107L53.354 22.3132L53.5811 22.6139L54.4 23.0321L54.5348 22.9846L54.572 23.3773L54.2579 23.6767L53.8042 24.6364L53.8217 25.2371L53.9126 25.6916L54.0809 25.8214L54.4175 25.838L54.6047 26.4189L55.6019 27.161L55.7315 27.3757L55.7973 27.5866L55.372 28.0287L55.2505 28.5573L55.2419 28.8146L55.5045 28.9595L55.4518 29.2344L56.3869 29.4918L56.5866 30.0533L57.8271 30.7202L58.28 31.9391L58.9428 32.0287L59.036 32.396L59.5466 32.2756L59.878 32.1984L60.1402 32.4316L59.8946 32.6994L59.4737 32.796L59.5741 33.026L59.2611 33.2983L59.0323 33.8001L58.8797 35.1004L58.6391 35.4011L58.5427 35.9127L58.7307 36.3399L58.7019 36.9737L58.3063 37.3946L58.1924 38.798L54.7016 39.7978L54.4406 41.2905L54.5551 42.0788L53.9902 43.843L54.2388 45.2038L54.5786 46.1587L54.7303 46.22L55.2751 46.0564L54.7854 46.8273L54.8672 46.9949L54.5915 47.5568L54.9014 47.7683L53.6285 48.5084L53.4601 48.7781L53.1935 48.8397L52.5831 50.0599L52.0241 50.0054L51.6854 50.1967L51.6905 50.5487L51.5707 50.6313L51.8493 51.504L51.1591 52.1415L51.4888 52.406L50.9376 52.7296L51.0371 53.1267L50.7835 53.194L50.2839 53.7125L50.0164 53.7117L49.8421 53.4852L49.306 53.5915L49.0525 54.2447L47.7034 55.2537L46.8071 55.5287L46.8561 55.8467L46.1887 55.7985L45.9376 55.6072L45.8529 55.266L45.4482 55.1631L45.6194 54.8749L45.6423 54.2053L44.7597 53.3392L44.4363 52.5051L43.9282 52.3686L43.3071 52.7552L42.835 52.7997L43.0928 52.3854L42.7899 51.9245L42.7655 51.6464L42.3248 51.2606L42.3929 50.8655L42.1805 50.1524L41.5925 49.9745L41.2435 50.1638L41.1958 50.3032L40.6385 50.1809L40.3077 50.2761L39.4346 49.8456L38.6479 49.7412L37.9442 49.2523L37.5601 49.1975L37.3461 49.3109L36.932 49.3132L35.9758 49.6816L35.7048 49.4465L35.1938 49.2852L34.8008 49.3594L34.516 49.2857L33.7701 49.4311L33.4536 49.2242L32.8527 49.4503L32.5449 49.186L31.9572 49.3209L31.3265 49.1527L30.2944 49.2638L29.3267 49.0031L29.1779 48.9902L28.9916 48.7476L28.6122 48.7557L28.2372 48.5123L27.6216 48.7573L26.6023 48.5387L26.2766 48.9277L25.2696 49.1336L24.9332 48.4132L24.2105 47.831L24.2343 47.5802L23.4779 46.217L22.4625 45.6215L22.4033 44.85L22.6172 44.6698L23.2052 44.4989L23.3541 44.0734L23.5638 43.9225L23.4239 43.751L23.7938 43.2921L24.2938 42.9596L24.6781 42.169L24.8758 41.0893L24.2608 40.3636L24.3624 40.4276L24.9632 40.3341L24.2847 37.0402L23.6111 36.1246L25.0785 36.3276L25.2995 36.1899L26.3594 36.1148L30.629 34.0483L30.852 34.5036L30.7689 34.8657L31.085 35.2278L31.0794 35.4812L31.2087 35.45L31.6474 35.7183L31.9933 35.5699L32.5937 35.6241L32.6505 35.9207L32.8912 36.1687L33.0197 36.1346L32.9854 36.3165L33.1966 36.3632L33.4906 36.9083L34.4904 36.9416L35.4181 36.8358L35.7433 35.9416L36.3864 35.7042L36.7052 35.356L36.5523 34.979L36.6707 34.8106L36.4607 34.5904L36.4592 34.2732L37.0487 33.7457L37.2699 32.9193L37.6716 32.7368L37.6666 32.3772L37.8052 32.3657L38.5331 31.5883L39.2434 31.6282L40.8401 32.0055L41.3172 31.8685L41.5998 31.37L42.1119 31.0241L42.2445 30.7371L42.867 30.2009L42.8806 29.7038L43.4209 29.398L43.6953 28.653L44.2729 28.2508L44.3615 27.7979L44.6405 27.3288L45.2084 26.8606L45.1079 26.4969L44.4959 26.2954L43.9588 25.7833L42.8969 25.8857L42.5921 25.8189L42.541 25.1736L44.4288 24.7224L45.201 24.4161L45.9784 23.6689L46.6389 23.2152L47.1671 23.0928L48.1143 22.6241L48.1156 22.623Z" fill="#979797" stroke="white" stroke-width="0.5" stroke-miterlimit="10"/>
<path d="M58.7039 36.9728L58.8955 36.6717L59.2774 36.6512L59.8396 37.0957L60.2136 36.9713L60.9571 37.1127L61.5729 38.1377L61.9531 38.0503L62.5855 37.6902L63.2865 37.5087L63.8467 37.5601L64.8734 37.3089L66.0257 37.473L66.6586 37.0934L67.239 37.0053L68.4286 37.4803L68.664 37.397L69.2492 37.4836L69.6839 37.2475L69.9029 37.3237L70.052 37.6254L70.0151 38.1913L70.2257 38.5334L70.5897 38.5711L70.499 39.0513L70.137 39.274L70.0438 39.5687L70.6164 39.4885L70.9747 39.2011L71.3339 39.0343L71.4395 39.0763L71.4109 38.516L71.464 38.3677L71.6824 38.2948L71.3737 37.9174L71.5611 37.802L71.767 37.3389L71.6063 36.8954L71.8401 36.8649L71.8698 36.6437L72.2339 36.4665L72.2513 36.3694L72.0662 36.3232L72.3165 36.251L72.3014 36.0688L72.5285 35.9385L72.5235 35.7415L72.7436 35.5399L73.6184 35.5615L73.8671 35.8848L75.1474 41.886L76.9354 43.5944L77.0797 44.1466L76.6596 44.328L76.1887 44.2946L75.8927 44.4608L75.4647 44.3149L75.1337 44.3861L74.6684 44.8046L74.2039 44.8325L73.8694 45.0314L73.3941 45.6568L73.6298 46.5306L73.4262 46.9648L73.4531 47.2289L73.6321 47.3558L73.8088 47.8442L73.6717 48.4843L74.067 49.2336L74.0644 49.6605L74.6048 50.1344L74.6818 50.4777L74.9051 50.6971L74.7561 51.2554L75.0292 51.4396L75.2011 51.947L75.1153 52.1874L75.2783 52.387L74.7161 52.7671L74.7879 53.3042L74.582 53.5599L73.8829 53.3174L72.0422 53.2492L71.8137 53.4113L70.6956 53.2964L69.5704 52.5316L68.5804 52.6255L67.9476 53.1542L66.9826 53.2817L66.5261 53.5471L65.6993 53.6636L65.4122 53.9081L64.0361 54.3473L63.5303 54.6423L62.6837 54.6385L61.8404 54.8844L61.8584 55.9471L61.5385 55.7351L61.2022 55.8766L60.9805 55.8413L60.8143 55.5783L60.4667 55.9357L60.3629 56.2943L59.7805 56.4919L59.4116 56.8357L59.1872 56.6567L58.2369 56.9593L57.4474 56.6365L57.8104 56.6938L57.8978 56.3262L57.2637 55.5281L56.9468 54.0212L56.7323 53.9171L56.9393 53.5564L57.3885 53.3374L57.5806 53.4533L57.9125 53.2209L57.7412 52.8936L58.0349 52.6741L58.1328 51.7449L58.0105 51.4538L57.9092 49.6186L58.1689 49.0845L58.22 48.6388L58.8713 48.2112L58.3081 48.0743L57.7802 48.241L57.5194 48.0209L57.2903 48.0025L56.7594 48.3518L56.8583 48.807L56.4498 48.8601L56.0559 48.7902L55.8979 48.0315L55.6807 47.9758L55.6276 48.0792L55.545 47.9535L54.9015 47.7663L54.5916 47.5548L54.8673 46.9929L54.7855 46.8253L55.2752 46.0543L54.7304 46.218L54.5787 46.1567L54.2389 45.2018L53.9903 43.841L54.5552 42.0768L54.4407 41.2885L54.7017 39.7957L58.1925 38.796L58.3064 37.3926L58.702 36.9717L58.7039 36.9728Z" fill="#979797" stroke="white" stroke-width="0.5" stroke-miterlimit="10"/>
<path d="M66.0067 56.4963L66.3925 56.8101L67.2664 56.8421L67.5338 56.968L67.9364 58.1538L68.2556 58.4002L68.5672 58.44L69.2641 59.2361L69.7709 59.0778L69.8619 59.006L69.781 58.9456L70.0448 58.7324L70.4921 58.7063L71.6125 57.4222L73.2925 56.224L74.1609 55.8655L74.6362 56.0331L74.9495 56.2201L75.2923 57.3056L75.1151 57.8162L75.3456 58.6407L75.1402 58.8604L75.2711 59.0135L74.9353 59.572L75.2037 59.6799L75.9719 60.7389L76.0492 60.9778L75.8113 61.1125L75.8429 61.3351L76.286 61.5085L76.6435 61.9742L76.8385 61.9674L77.1503 62.335L77.5215 62.1843L77.7197 61.9157L78.0973 62.0123L78.1459 62.2781L78.9641 62.613L79.3676 62.9996L79.2745 63.2943L79.436 63.414L79.202 63.4225L78.5391 63.8966L78.063 64.0586L78.4339 64.8057L78.0945 65.194L77.6438 66.1573L77.0436 66.6309L77.1525 66.7437L77.0575 67.1865L76.6959 67.3791L76.2769 67.3635L75.6631 66.8866L75.2794 67.182L75.2367 67.5184L74.8445 68.0128L74.8542 68.316L75.1083 68.5245L75.3788 68.6539L75.7083 68.6142L75.8425 68.7873L76.519 69.0834L77.1049 69.8329L77.7935 69.5969L77.8594 69.3185L78.5489 69.1683L78.6443 69.0462L78.9952 69.4361L79.344 69.2303L80.036 69.986L80.4334 70.8095L80.4832 71.1973L80.1534 71.896L80.4157 72.5152L79.9371 72.809L80.0299 73.026L80.2764 73.0591L80.2724 73.1554L79.5849 73.5151L79.4568 73.7742L79.7268 73.8802L79.6152 74.0605L78.9916 74.2301L78.7827 74.0572L78.738 74.8011L78.231 75.174L78.191 75.3637L77.1706 75.9577L76.8822 76.2427L76.6001 76.3281L76.572 76.6158L76.8794 76.5729L77.5392 76.8215L77.7729 77.0355L77.1451 77.4852L76.6502 77.5688L76.3416 77.74L76.3608 78.0493L76.5408 78.1508L76.3695 78.2977L76.1091 78.4278L75.8302 78.2884L75.3059 78.4392L75.3637 79.3543L75.658 79.9083L75.3737 80.3714L75.3348 80.6769L75.5358 80.7594L76.0689 80.5303L76.6552 80.6583L76.5124 80.9736L76.5506 81.3094L76.116 81.6498L76.3356 83.0423L76.6153 83.5199L77.4532 83.7882L77.5823 83.9717L77.2071 84.0251L76.7704 84.4986L76.9324 85.0803L76.0406 84.9514L75.8345 85.2194L75.5897 85.5944L75.7325 86.4897L74.4843 85.8307L74.4951 85.3819L74.2714 85.1311L74.3228 84.6731L73.9711 84.5995L73.5583 84.8148L73.4292 84.6762L73.4447 84.2978L73.253 84.0566L72.9051 83.8642L72.5487 84.0394L72.3271 83.9966L72.1459 83.542L71.6398 83.4719L71.5711 83.1383L71.195 83.2096L71.1459 83.336L70.6112 83.2616L70.6698 83.4295L70.4661 83.7893L69.8532 84.0368L69.7875 84.3451L69.5727 84.4689L69.0604 84.6571L68.9252 84.5839L68.754 84.8721L68.3227 84.7137L67.6386 84.8041L67.3359 84.2849L66.7826 84.1856L66.7245 84.0251L67.7477 83.3004L68.1999 83.1597L67.9514 82.9036L68.2027 82.6493L68.1482 82.5102L67.9846 82.4044L67.2584 82.6237L66.8533 82.245L66.3246 82.5654L66.3315 82.3759L66.0943 82.1195L66.1437 81.7203L65.981 81.5667L66.1831 81.4029L66.5967 81.3692L66.8612 81.0098L66.9 80.7252L66.1155 80.7112L65.9163 80.4865L65.9949 80.3523L66.2932 80.3358L66.5313 80.1668L66.6671 79.788L65.9108 79.4788L65.9319 79.0395L65.6446 78.9504L65.4552 79.0663L65.4671 78.7097L65.2234 78.6952L65.226 78.4678L63.9729 78.5406L63.8844 78.385L64.0341 78.1859L65.3255 77.9168L65.7706 77.4753L65.7637 76.699L66.591 75.8075L67.0948 75.8082L67.6784 75.509L67.9413 75.4767L68.6187 74.887L68.7509 73.9755L68.6253 73.4645L68.9248 73.245L68.9438 72.894L69.4165 72.5034L69.4317 72.1668L69.6591 72.0006L69.1236 71.7683L69.1325 71.5573L68.9703 71.472L69.0835 71.0394L69.324 70.7895L69.0612 70.6655L68.7089 70.6857L68.6689 70.237L69.0175 70.2323L68.9282 69.8073L67.9585 68.9671L68.0307 68.7421L69.0222 68.6029L69.2825 68.0419L70.1758 67.689L70.3581 67.131L67.8871 63.8545L67.9201 62.9842L67.6801 62.7019L67.2761 62.5347L67.3871 62.0939L66.8935 60.3805L66.2173 58.1998L66.2765 57.6221L66.1094 57.2952L66.1581 56.8561L66.0101 56.4974L66.0067 56.4963Z" fill="#979797" stroke="white" stroke-width="0.5" stroke-miterlimit="10"/>
<path d="M79.4355 63.4139L79.872 63.7619L79.8529 63.9504L80.2439 64.0526L80.2615 64.2895L80.8635 63.623L81.4826 63.2873L81.2233 62.9102L81.2893 62.2546L80.9296 61.9356L80.8416 61.2178L80.9992 61.2776L81.7379 61.0385L82.5149 60.5955L82.3042 60.3861L82.3406 60.2198L82.6781 60.0989L83.0271 59.6352L82.3569 59.0065L82.3092 58.6346L82.8407 58.5696L83.4001 58.1577L83.4762 57.9631L83.3451 57.6759L83.8566 57.4612L83.922 57.2711L84.3313 57.1016L84.9646 56.4866L85.8246 56.3705L85.3831 57.2195L85.5294 57.3268L86.0063 57.3165L86.0455 58.1692L86.4255 58.4904L87.1383 59.5404L86.7983 60.0241L87.6446 60.4126L88.2373 60.4373L88.5304 60.6013L88.6397 60.7392L88.5594 60.8888L88.8761 61.1043L89.1275 61.5474L89.0414 61.8906L89.4658 61.8659L90.3422 62.3089L89.96 62.5279L89.354 63.1715L89.0636 63.7152L88.8993 64.7561L89.4785 64.9828L89.5387 65.5214L89.8003 65.8991L90.0527 65.9975L90.5521 66.0797L90.6424 65.9231L90.7853 66.0253L91.6007 66.052L92.1074 65.9386L93.038 66.0438L93.7138 65.9004L94.0466 66.3923L93.8157 66.6787L93.772 67.1657L94.0451 67.3795L94.1864 67.7206L94.4872 67.8019L94.5138 68.3761L95.374 68.7208L95.4121 70.1256L97.1348 79.7111L96.9555 80.288L96.5524 80.4067L96.345 80.7659L95.7291 80.8158L95.1873 81.5021L94.6698 81.657L94.4614 82.1984L93.9214 82.5056L93.088 83.2783L93.0174 83.5682L93.1526 83.9452L93.4736 84.1239L93.2211 84.656L93.5713 85.4503L93.3693 85.8376L93.1787 85.9196L92.9211 85.8017L92.44 85.9159L92.0818 85.8258L91.9822 85.9475L91.6473 85.9961L91.4302 86.3189L90.7422 86.5863L90.6116 86.3974L90.4051 86.4269L90.1785 86.9746L89.7844 87.0897L89.6184 87.3604L89.0586 87.534L88.6923 87.8578L88.3961 88.0095L88.2027 87.9848L87.8702 88.2816L87.6682 88.195L86.4892 88.8354L86.4095 89.2768L86.0908 89.6313L85.7773 89.8726L85.4699 89.8782L85.0991 90.0363L84.5113 89.9477L84.5713 89.6842L84.0069 89.5505L83.6045 89.1742L82.7323 88.7391L82.228 88.9518L82.1165 89.2734L81.8136 89.3703L81.5284 89.2522L81.3227 89.3516L80.8611 88.7675L79.5624 89.1952L79.0688 89.1501L78.3972 89.3387L78.3387 89.6526L78.146 89.7796L77.6034 89.609L77.7295 90.0258L77.3838 90.5842L76.4689 90.6851L76.3464 90.9651L76.4549 91.494L76.738 91.4339L77.0901 91.6342L77.0342 92.0753L75.8352 92.8851L75.3166 93.1103L74.9644 93.554L74.5915 93.7646L73.758 94.4118L73.0688 93.8073L73.0914 93.4853L72.8 93.4181L72.7735 93.2299L72.5125 93.1365L71.283 93.2314L71.0814 92.9019L70.7883 92.8497L70.635 92.6042L70.3936 92.5906L69.9654 92.2362L70.1338 92.0333L69.7467 91.5365L69.8726 91.293L69.5818 91.1749L69.7275 91.102L69.6315 90.8964L69.7187 90.669L68.9035 89.8638L69.1361 89.0118L69.547 88.4408L69.7828 87.8403L69.6003 87.5667L69.7274 87.1261L69.6542 86.9829L69.8726 86.8491L69.6847 86.571L69.9375 86.4713L69.9181 86.1081L69.7747 86.0119L70.0751 85.7056L70.173 85.2817L70.6015 84.9399L70.517 84.6135L70.6932 83.9288L71.1436 83.3368L71.1927 83.2104L71.5688 83.139L71.6375 83.4727L72.1436 83.5428L72.3248 83.9974L72.5464 84.0402L72.9033 83.8649L73.2512 84.0572L73.4429 84.2985L73.4274 84.6769L73.5565 84.8154L73.9693 84.6001L74.321 84.6738L74.2696 85.1318L74.4933 85.3826L74.4825 85.8314L75.7307 86.4903L75.5879 85.595L75.8327 85.22L76.0388 84.952L76.9306 85.0809L76.7686 84.4992L77.2053 84.0257L77.5805 83.9723L77.4514 83.7889L76.6135 83.5206L76.3338 83.0429L76.1142 81.6504L76.5488 81.3101L76.5107 80.9742L76.6534 80.6589L76.0671 80.5309L75.5341 80.7604L75.3331 80.6779L75.3721 80.3724L75.6563 79.9094L75.362 79.3553L75.3042 78.4402L75.8286 78.2894L76.1074 78.4288L76.3678 78.2988L76.5391 78.1518L76.3591 78.0504L76.3399 77.741L76.6485 77.5698L77.1434 77.4863L77.7712 77.0365L77.5375 76.8225L76.8777 76.5739L76.5704 76.6168L76.5984 76.3292L76.8805 76.2438L77.1689 75.9587L78.1893 75.3647L78.2294 75.175L78.7363 74.8021L78.781 74.0582L78.9899 74.2311L79.6135 74.0615L79.7251 73.8812L79.4551 73.7752L79.5832 73.5162L80.2707 73.1564L80.2747 73.0601L80.0282 73.0271L79.9354 72.81L80.414 72.5163L80.1517 71.897L80.4815 71.1984L80.4317 70.8105L80.0343 69.987L79.3424 69.2313L78.9936 69.4372L78.6426 69.0473L78.5472 69.1694L77.8577 69.3195L77.7918 69.5979L77.1032 69.8339L76.5173 69.0844L75.8408 68.7883L75.7067 68.6152L75.3772 68.655L75.1066 68.5256L74.8525 68.317L74.8429 68.0142L75.2351 67.5198L75.2778 67.1834L75.6615 66.888L76.2754 67.3648L76.6943 67.3805L77.0559 67.1878L77.1509 66.7451L77.0421 66.6322L77.6423 66.1587L78.0929 65.1954L78.4323 64.8071L78.0614 64.06L78.5375 63.898L79.2004 63.4239L79.4344 63.4154L79.4355 63.4139Z" fill="#979797" stroke="white" stroke-width="0.5" stroke-miterlimit="10"/>
<path d="M42.8483 83.9194L43.1544 83.725L43.2603 83.406L43.4035 83.568L43.5566 83.5365L43.811 84.1027L44.0682 83.9019L44.4725 83.9738L45.3421 84.5619L45.8678 84.5493L46.0795 84.9328L46.4494 84.8438L46.5063 84.702L46.9876 84.4851L47.3397 84.6051L47.8446 85.0408L48.3282 85.0987L48.5961 84.8935L48.5169 84.6984L48.8071 84.383L49.5936 84.0344L49.7572 84.1327L49.9694 84.0658L50.3123 83.6829L51.2029 83.8762L51.3475 84.0063L51.5531 83.8849L51.5821 83.697L51.9575 83.7852L52.0448 83.9364L52.4192 83.925L52.6394 83.7548L53.3905 83.7332L54.0716 83.5275L54.0462 84.0096L54.2127 84.1265L54.3972 84.0508L54.4784 84.1202L54.0597 84.5874L54.6512 84.9718L55.0589 84.916L55.7106 85.0086L56.2807 84.6292L57.4189 84.6793L59.0197 84.3908L59.818 84.361L60.5154 84.2403L60.694 84.0914L60.705 83.8665L61.9478 83.6221L62.4309 83.6192L63.3033 83.1345L63.8336 83.1474L64.7797 82.2945L65.3617 82.2712L65.977 81.567L66.1398 81.7206L66.0904 82.1198L66.3275 82.3761L66.3207 82.5657L66.8493 82.2453L67.2545 82.624L67.9807 82.4047L68.1443 82.5105L68.1988 82.6496L67.9474 82.9039L68.196 83.16L67.7438 83.3007L66.7206 84.0253L66.7787 84.1859L67.3319 84.2852L67.6346 84.8044L68.3188 84.714L68.7501 84.8724L68.9213 84.5842L69.0564 84.657L69.5687 84.4688L69.7835 84.345L69.8492 84.0367L70.4621 83.7892L70.6657 83.4294L70.6072 83.2615L71.1419 83.3359L70.6915 83.928L70.5153 84.6127L70.5997 84.939L70.1712 85.2809L70.0733 85.7047L69.773 86.011L69.9163 86.1073L69.9358 86.4705L69.6829 86.5702L69.8708 86.8482L69.6524 86.9821L69.7257 87.1252L69.5985 87.5659L69.7811 87.8394L69.5452 88.44L69.1344 89.0109L68.9018 89.8629L69.7169 90.6682L69.6298 90.8955L69.7258 91.1011L69.58 91.174L69.8709 91.2921L69.7449 91.5357L70.132 92.0325L69.9636 92.2353L70.3919 92.5898L70.6332 92.6033L70.7866 92.8488L71.0797 92.901L71.2812 93.2305L72.5108 93.1356L72.7718 93.229L72.7983 93.4172L73.0897 93.4844L73.0671 93.8064L73.7563 94.4109L74.286 94.5999L74.495 94.9515L74.7335 94.9091L74.8744 95.2547L75.3945 95.6895L74.9939 96.1208L74.5842 95.8657L73.8326 96.1248L73.091 95.9904L72.7199 96.1706L72.0946 95.7251L71.6383 95.6879L70.454 96.1986L69.4553 96.4141L68.3608 96.3272L67.9345 96.3953L66.8074 96.2305L66.0135 96.3142L65.6809 96.2307L64.4275 96.5763L64.3199 96.2231L64.4992 96.0831L64.3011 95.9821L64.0633 96.0345L63.7215 95.8283L63.9284 95.696L63.7491 95.3232L62.6582 95.6808L61.9505 96.0368L61.6772 95.6949L61.9982 95.2669L61.8534 95.0027L61.9771 94.8014L61.8606 94.5478L61.0424 94.7261L60.4196 95.0986L59.8942 95.1276L59.5443 95.3648L59.2984 95.2301L59.1483 95.3159L59.1674 95.4762L58.7734 95.6074L58.8729 95.9986L57.4987 96.564L57.2474 96.2547L56.5596 96.4937L56.2483 96.3436L55.7193 96.4315L55.2689 96.3423L54.9757 96.5794L54.4919 96.6167L52.8666 96.0412L52.4477 95.5811L49.1545 93.5723L49.1439 93.4499L48.6098 93.0743L49.086 92.6754L49.2535 92.6609L48.6777 92.0456L47.7409 91.641L46.8971 91.7364L46.671 91.6471L46.3569 91.3667L46.3858 91.1056L46.2242 90.8233L45.8548 90.5576L45.2429 90.4604L44.9705 90.2197L44.7171 90.2137L44.3657 89.7342L43.8463 89.3767L43.8211 89.2658L44.0624 89.2419L44.0536 89.1502L43.3472 88.5101L43.1726 87.881L42.7248 87.6152L42.4698 87.3132L42.4914 87.1422L43.1872 86.9546L43.3133 86.8078L43.1931 86.4072L42.7738 85.9456L42.5581 85.8446L42.0555 85.8854L42.1558 85.6037L42.0946 85.0536L42.309 84.809L42.2631 84.6201L42.4257 84.4325L42.6081 84.4019L42.5235 84.2826L42.8459 83.9185L42.8483 83.9194Z" fill="#979797" stroke="white" stroke-width="0.5" stroke-miterlimit="10"/>
<path d="M39.7066 74.5386L40.0346 74.456L40.3249 73.8827L41.9919 72.3302L42.3247 72.1168L42.7237 72.0709L43.7584 71.6132L43.8505 71.3888L44.0686 71.2775L44.6655 71.3042L44.8478 70.6939L44.6036 70.4618L44.9184 70.0474L44.6836 69.7042L44.3575 69.5061L44.4126 69.3947L44.7022 69.3746L46.0195 68.6767L46.3547 68.8504L46.6382 68.7918L46.8377 68.8688L46.8641 69.0271L47.1969 69.1998L47.2137 69.4862L47.4216 69.4834L47.7708 70.1407L47.992 70.2623L48.3697 70.3889L48.9701 70.4056L49.1162 70.5712L50.1575 70.939L50.225 71.2896L50.0702 71.4184L50.248 71.5546L51.1935 71.4709L51.5293 71.7664L51.8685 71.8064L52.0535 71.9482L52.156 72.3504L51.8488 72.6527L51.9087 72.7828L53.3057 73.298L53.4891 73.5297L53.452 73.6186L52.9682 73.7677L52.8484 73.9305L53.1306 74.1942L52.9326 74.2109L52.8324 74.3893L52.6589 74.2771L52.241 74.4729L52.2065 74.9441L52.0606 74.9576L52.0352 75.1595L51.3781 75.4321L51.2197 75.3907L50.9588 75.6149L50.4223 75.7646L50.1132 76.0968L50.5187 76.3652L51.1752 77.2692L51.4138 77.2119L51.1989 77.4999L51.1706 77.8159L51.4029 78.3223L51.4658 78.4264L51.6063 78.3924L51.6318 78.6001L51.1308 79.2697L50.6711 79.4274L50.5447 79.6262L50.5704 79.8268L51.0844 80.0231L51.2099 80.2674L50.988 80.617L51.2311 81.5499L51.12 81.5987L51.1306 81.8462L51.991 81.8432L52.2318 81.9585L52.985 81.8096L53.7361 81.958L53.7351 82.4144L53.9746 82.5387L54.0448 82.7661L54.4111 82.8048L54.5277 82.9332L54.3332 83.341L54.0723 83.5279L53.3912 83.7336L52.64 83.7552L52.4199 83.9253L52.0455 83.9368L51.9582 83.7856L51.5828 83.6973L51.5538 83.8853L51.3482 84.0067L51.2036 83.8766L50.313 83.6833L49.9701 84.0662L49.7579 84.1331L49.5942 84.0348L48.8078 84.3833L48.5176 84.6988L48.5968 84.8938L48.3289 85.0991L47.8453 85.0411L47.3404 84.6054L46.9883 84.4854L46.507 84.7024L46.4501 84.8442L46.0802 84.9332L45.8685 84.5497L45.3428 84.5623L44.4731 83.9742L44.0689 83.9022L43.8117 84.1031L43.5573 83.5368L43.4042 83.5684L43.261 83.4064L43.1551 83.7253L42.8489 83.9198L42.6238 83.3816L43.0711 83.3107L43.1645 83.1068L43.0962 82.8864L42.8497 82.7357L42.7457 82.2847L42.3038 82.2275L42.0469 82.3865L41.652 82.4242L41.4829 82.5793L41.2671 82.529L41.2513 82.0247L40.8302 81.6818L40.0992 80.4087L40.358 79.9748L40.5656 79.015L40.8848 78.9422L40.9734 78.4834L41.2469 78.2247L41.2087 77.9845L40.9412 77.9094L39.9018 78.2089L39.5344 78.6106L39.0403 78.0079L38.8533 77.2495L38.4414 76.9784L38.9062 76.9969L39.0337 76.677L39.8284 76.4337L39.7085 75.6484L39.5089 75.2971L39.9829 74.8448L39.7073 74.5392L39.7066 74.5386Z" fill="#979797" stroke="white" stroke-width="0.5" stroke-miterlimit="10"/>
</g>
<defs>
<clipPath id="clip0_210_1436">
<rect width="85.9026" height="114.55" fill="white" transform="translate(0 7.01025) rotate(-14.8462)"/>
</clipPath>
</defs>
</svg>
