<svg width="26" height="25" viewBox="0 0 26 25" fill="none" xmlns="http://www.w3.org/2000/svg">
<path d="M4.87384 4.21558C6.91227 2.17719 9.63958 1.0337 12.5532 1.00055C15.4386 0.967408 18.1716 2.02803 20.2439 3.98357L19.092 3.99461C18.8097 4.00014 18.5838 4.22663 18.5838 4.50283C18.5894 4.77904 18.8153 5 19.0976 5H19.1033L21.4918 4.97238C21.7741 4.96686 22 4.74037 22 4.46416L21.9718 2.12747C21.9661 1.85126 21.7346 1.63582 21.4523 1.6303C21.1699 1.63582 20.9441 1.86231 20.9441 2.13852L20.9554 3.27096C18.6911 1.12761 15.704 -0.0324535 12.5419 0.000691076C9.3516 0.0338357 6.37019 1.28228 4.14543 3.51402C3.9478 3.71288 3.95345 4.02776 4.15108 4.2211C4.34871 4.41997 4.67621 4.41445 4.87384 4.21558Z" fill="#79FA95"/>
<path d="M0.96582 16.8369C3.18519 14.1262 7.16293 13.7101 9.90137 15.9004C10.2439 16.2432 10.5529 16.5565 10.8613 16.9678L10.8936 17.0107L10.9307 17.0488C11.1239 17.2421 11.1542 17.5826 11.0273 17.8369C10.9294 18.0329 10.6129 18.2498 10.2803 18.25H1.53613C1.12343 18.25 0.750139 17.877 0.75 17.4639C0.75 17.2898 0.805236 17.0843 0.96582 16.8369ZM15.1172 16.9893C17.3377 14.2396 21.3558 13.816 24.1064 16.0381L24.1328 16.0596L24.1611 16.0781C24.2576 16.1425 24.3828 16.2617 24.5576 16.4512C24.6927 16.5976 24.8816 16.8119 25.0566 16.9922C25.2497 17.2621 25.3001 17.5567 25.1924 17.8574C25.0829 18.0475 24.7797 18.25 24.459 18.25H15.7148C15.3023 18.2497 14.9298 17.8768 14.9297 17.4639C14.9297 17.2581 15.0006 17.1127 15.0645 17.0488L15.0918 17.0205L15.1172 16.9893ZM5.9082 6.75C7.14786 6.75012 8.2302 7.83206 8.23047 9.07227C8.23047 10.3127 7.14802 11.3954 5.9082 11.3955C4.66831 11.3955 3.58594 10.3127 3.58594 9.07227C3.58621 7.832 4.66846 6.75 5.9082 6.75ZM20.0869 6.75C21.3267 6.75 22.4089 7.832 22.4092 9.07227C22.4092 10.3127 21.3268 11.3955 20.0869 11.3955C18.8471 11.3953 17.7646 10.3126 17.7646 9.07227C17.7649 7.83209 18.8473 6.75017 20.0869 6.75Z" stroke="white" stroke-width="1.5"/>
<path d="M5.04462 22.8619L5.03333 21.7293C7.27503 23.8453 10.2056 25 13.3169 25C13.3621 25 13.4129 25 13.4581 25C16.6484 24.9669 19.6298 23.7182 21.8546 21.4862C22.0522 21.2873 22.0466 20.9724 21.8489 20.779C21.6456 20.5856 21.3238 20.5912 21.1262 20.7845C19.0877 22.8232 16.3604 23.9669 13.4468 24C10.5557 24.0331 7.8284 22.9724 5.75609 21.0166L6.908 21.0055C7.19033 21 7.4162 20.7735 7.4162 20.4972C7.41055 20.221 7.18469 20 6.90236 20H6.89671L4.50819 20.0276C4.37268 20.0276 4.2428 20.0829 4.14681 20.1768C4.05082 20.2707 4 20.3978 4 20.5304L4.02823 22.8674C4.03388 23.1436 4.25974 23.3646 4.54207 23.3646H4.54772C4.8244 23.3646 5.05027 23.1381 5.04462 22.8619Z" fill="#79FA95"/>
</svg>
