<svg width="16" height="17" viewBox="0 0 16 17" fill="none" xmlns="http://www.w3.org/2000/svg">
<path d="M4.00033 13.8333C3.63366 13.8333 3.31988 13.7029 3.05899 13.442C2.7981 13.1811 2.66744 12.8671 2.66699 12.5V11.1666C2.66699 10.9777 2.73099 10.8195 2.85899 10.692C2.98699 10.5644 3.14521 10.5004 3.33366 10.5C3.5221 10.4995 3.68055 10.5635 3.80899 10.692C3.93744 10.8204 4.00121 10.9786 4.00033 11.1666V12.5H12.0003V11.1666C12.0003 10.9777 12.0643 10.8195 12.1923 10.692C12.3203 10.5644 12.4785 10.5004 12.667 10.5C12.8554 10.4995 13.0139 10.5635 13.1423 10.692C13.2708 10.8204 13.3345 10.9786 13.3337 11.1666V12.5C13.3337 12.8666 13.2032 13.1806 12.9423 13.442C12.6814 13.7033 12.3674 13.8337 12.0003 13.8333H4.00033ZM7.33366 5.73329L6.08366 6.98329C5.95033 7.11663 5.7921 7.18063 5.60899 7.17529C5.42588 7.16996 5.26744 7.10041 5.13366 6.96663C5.01144 6.83329 4.94744 6.67774 4.94166 6.49996C4.93588 6.32218 4.99988 6.16663 5.13366 6.03329L7.53366 3.63329C7.60033 3.56663 7.67255 3.51952 7.75033 3.49196C7.8281 3.46441 7.91144 3.45041 8.00033 3.44996C8.08921 3.44952 8.17255 3.46352 8.25033 3.49196C8.3281 3.52041 8.40033 3.56752 8.46699 3.63329L10.867 6.03329C11.0003 6.16663 11.0643 6.32218 11.059 6.49996C11.0537 6.67774 10.9897 6.83329 10.867 6.96663C10.7337 7.09996 10.5754 7.16952 10.3923 7.17529C10.2092 7.18107 10.0508 7.11707 9.91699 6.98329L8.66699 5.73329V10.5C8.66699 10.6889 8.60299 10.8473 8.47499 10.9753C8.34699 11.1033 8.18877 11.1671 8.00033 11.1666C7.81188 11.1662 7.65366 11.1022 7.52566 10.9746C7.39766 10.8471 7.33366 10.6889 7.33366 10.5V5.73329Z" fill="#1F1E1E"/>
</svg>
