<svg width="17" height="16" viewBox="0 0 17 16" fill="none" xmlns="http://www.w3.org/2000/svg">
<path d="M16.4575 0.743322C16.4997 0.645276 16.5115 0.536813 16.4914 0.431967C16.4713 0.327122 16.4203 0.23072 16.3448 0.155233C16.2693 0.0797473 16.1729 0.0286515 16.068 0.00855716C15.9632 -0.0115371 15.8547 0.000294864 15.7567 0.0425223L0.823346 6.44252C0.723911 6.48513 0.639782 6.55696 0.582124 6.64849C0.524466 6.74002 0.496006 6.84692 0.500519 6.955C0.505032 7.06309 0.542306 7.16724 0.607393 7.25365C0.672482 7.34005 0.762305 7.40462 0.864945 7.43879L7.01214 9.48786L9.06014 15.6351C9.09411 15.738 9.15865 15.8282 9.24517 15.8936C9.33169 15.9589 9.43608 15.9964 9.54442 16.0009C9.65276 16.0054 9.7599 15.9768 9.85157 15.9189C9.94323 15.8609 10.0151 15.7764 10.0575 15.6767L16.4575 0.743322Z" fill="#1F1E1E"/>
</svg>
